<?xml version="1.0" encoding="utf-8"?>
<!-- Generator: Adobe Illustrator 27.5.0, SVG Export Plug-In . SVG Version: 6.00 Build 0)  -->
<svg version="1.1" xmlns="http://www.w3.org/2000/svg" xmlns:xlink="http://www.w3.org/1999/xlink" x="0px" y="0px"
	 viewBox="0 0 750 500" style="enable-background:new 0 0 750 500;" xml:space="preserve">
<g id="BACKGROUND">
	<rect style="fill:#FFFFFF;" width="750" height="500"/>
</g>
<g id="OBJECTS">
	<g>
		<path style="fill:#FCDEDB;" d="M66.469,423.494C27.653,370.095,14.58,298.983,31.189,235.09
			c16.609-63.893,62.384-119.44,121.618-148.586c59.234-29.146,130.853-31.592,192.202-7.211
			c31.239,12.415,63.282,29.464,92.053,46.487c28.697,16.978,62.907,20.143,95.549,21.206c36.449,1.188,74.201,0.552,107.608,15.177
			c46.975,20.565,77.813,70.291,82.048,121.395c4.235,51.104-15.789,102.415-48.276,142.091L66.469,423.494z"/>
		<g>
			<g>
				<rect x="174.978" y="176.105" style="fill:#FDEBE9;" width="62.645" height="78.227"/>
				<rect x="255.302" y="176.105" style="fill:#FDEBE9;" width="62.645" height="78.227"/>
				<rect x="174.978" y="264.786" style="fill:#FDEBE9;" width="62.645" height="78.227"/>
				<rect x="255.302" y="264.786" style="fill:#FDEBE9;" width="62.645" height="78.227"/>
			</g>
			<g>
				<rect x="447.852" y="170.878" style="fill:#FDEBE9;" width="62.645" height="78.227"/>
				<rect x="528.176" y="170.878" style="fill:#FDEBE9;" width="62.645" height="78.227"/>
				<rect x="447.852" y="259.559" style="fill:#FDEBE9;" width="62.645" height="78.227"/>
				<rect x="528.176" y="259.559" style="fill:#FDEBE9;" width="62.645" height="78.227"/>
			</g>
			<rect x="145.296" y="119.766" style="fill:#FDEBE9;" width="199.12" height="26.042"/>
		</g>
	</g>
	<g>
		<g>
			<path d="M87.331,193.214c-2.324,3.952-4.095,8.228-5.204,12.679c-3.572,14.344-0.498,29.955-5.55,43.846
				c-2.393,6.581-6.481,12.38-10.257,18.277c-3.776,5.897-7.344,12.145-8.485,19.053c-0.671,4.063-0.379,8.371,1.105,12.23
				c1.619,4.211,4.129,6.014,7.609,8.459c7.405,5.202,16.212,8.063,25.071,9.91c27.861,5.806,57.638,1.968,83.115-10.714
				c4.903-2.441,9.712-5.244,13.564-9.137c3.853-3.893,6.699-9.003,6.978-14.473c0.38-7.451-3.914-14.297-8.546-20.146
				c-2.352-2.97-4.589-6.331-7.197-9.065c-2.082-2.183-3.604-3.95-4.661-6.918c-2.085-5.847-1.806-12.4-0.349-18.357
				c2.066-8.448,6.258-16.214,8.989-24.471c2.731-8.257,3.887-17.65-0.048-25.406c-3.094-6.097-9.024-10.409-15.451-12.743
				c-6.426-2.334-13.359-2.879-20.195-2.971c-9.802-0.132-23.728,0.295-27.454,11.377c-4.446-3.446-10.965-1.59-15.816,1.258
				C97.453,180.069,91.502,186.122,87.331,193.214z"/>
			<g>
				<g>
					<path style="fill:#F7B385;" d="M223.467,361.634c-7.587-2.034-14.807-6.116-21.662-10.145
						c-9.79-5.754-19.9-11.924-25.964-21.525c-4.514-7.148-6.33-15.559-7.205-23.865c-0.705-6.696-2.405-16.637,0.693-22.949
						c14.243,6.207,25.681,17.311,36.781,28.183c2.899,2.84,5.817,5.662,8.698,8.52c1.855,1.841,3.529,4.219,5.635,5.77
						c2.18,1.606,2.59,0.806,2.946-1.641c0.566-3.896,0.774-7.881,1.159-11.799c1.562-15.898,3.124-31.796,4.685-47.693
						c0.027-0.265,15.987-0.357,17.303,0.428c1.135,13.043,2.27,26.086,3.404,39.129c0.844,9.707,1.686,19.436,1.61,29.188
						c-0.038,4.85-0.3,9.702-0.909,14.515c-0.512,4.049-0.309,7.171-3.359,10.229c-3.271,3.279-8.027,4.697-12.652,4.938
						C230.824,363.113,227.103,362.609,223.467,361.634z"/>
					<path style="fill:#E0764C;" d="M213.3,337.099c1.771,2.625,3.986,5.181,7,6.152c0-1.161,0.911-2.509,1.084-3.693
						c0.121-0.827-0.027-1.561,0.004-2.377c0.097-2.594,1.118-5.321,1.721-7.842c0.245-1.027,0.473-2.18-0.078-3.08
						c-0.388-0.633-1.082-0.997-1.731-1.358c-3.16-1.757-5.478-4.114-8.05-6.579c-0.825-0.79-7.789-6.456-7.541-7.243
						c-1.173,3.724,0.611,9.723,1.673,13.365C208.691,328.932,210.685,333.222,213.3,337.099z"/>
					<path style="fill:#2F5F7D;" d="M205.594,311.845c0.572-0.548,1.11-1.151,1.25-1.916c0.212-1.153-0.548-2.241-1.301-3.14
						c-2.253-2.687-4.831-5.101-7.661-7.172c-0.55-0.402-1.129-0.801-1.796-0.94c-1.498-0.313-2.928,1.261-3.933,2.15
						c-1.542,1.365-3.005,2.828-4.298,4.434c-1.893,2.351-3.311,5.294-4.9,7.864c-0.273,0.443-0.552,0.899-0.645,1.41
						c-0.128,0.704,0.111,1.418,0.346,2.093c2.153,6.181,4.306,12.362,6.459,18.544c0.084,0.241,0.196,0.512,0.437,0.596
						c0.382,0.134,0.714-0.287,0.901-0.646c4.219-8.102,8.068-16.691,14.754-22.914
						C205.335,312.089,205.465,311.968,205.594,311.845z"/>
				</g>
				<g>
					<g>
						<path style="fill:#F7B385;" d="M253.098,257.759c-1.219,2.766-2.842,5.434-5.212,7.31c-2.37,1.875-5.588,2.858-8.493,2.021
							c-0.945-0.272-1.837-0.726-2.803-0.909c-1.421-0.27-2.894,0.107-4.277-0.347c-1.201-0.395-2.525-0.388-3.682-0.946
							c-1.654-0.798-2.683-2.471-3.535-4.097c-0.853-1.626-1.673-3.359-3.133-4.473c-1.342-1.025-3.155-1.466-4.169-2.816
							c-0.747-0.996-0.922-2.321-1.612-3.357c-1.46-2.193-4.616-2.391-6.706-3.994c-0.801-0.614-1.473-1.678-1.048-2.594
							c0.402-0.866,1.524-1.078,2.478-1.103c3.628-0.092,7.277,0.942,10.318,2.924c0.854,0.557,1.787,1.217,2.791,1.042
							c0.896-0.156,1.545-0.944,1.966-1.75c0.422-0.806,0.714-1.697,1.308-2.386c0.794-0.92,2.038-1.354,3.252-1.42
							c1.265-0.069,2.372,0.344,3.589,0.498c1.062,0.135,2.319-0.367,3.381-0.544c2.484-0.415,5.003-0.624,7.522-0.624
							c2.944,0,6.246,0.082,9.079,0.96c2.622,0.812,2.05,3.609,1.826,5.82C255.561,250.687,254.603,254.343,253.098,257.759z"/>
						<path style="fill:#E0764C;" d="M253.027,247.199c-0.571,0.881-1.062,1.842-1.69,2.679c-0.613,0.817-0.892,1.976-1.266,2.928
							c-0.395,1.006-0.839,2.074-1.74,2.671c-1.277,0.846-2.988,0.445-4.41-0.126c-0.275,0.642-0.967,0.997-1.636,1.199
							c-0.669,0.202-1.383,0.31-1.972,0.686c-1.078,0.688-1.544,2.148-2.716,2.661c-1.054,0.46-2.32-0.051-3.118-0.879
							c-0.935-0.969-1.283-2.142-1.938-3.274c-0.711-1.226-1.689-2.28-2.746-3.215c-1.078-0.953-2.251-1.784-3.372-2.683
							c-0.918-0.736-2.011-0.932-2.605-2.084c-0.205-0.397-0.329-0.848-0.274-1.291c0.129-1.047,1.163-1.191,2.018-1.42
							c1.402-0.376,2.696-1.147,3.695-2.2c1.073-1.132,1.845-2.606,3.204-3.37c1.559-0.877,3.512-0.596,5.208-0.026
							c2.316,0.779,4.448,2.04,6.767,2.811c2.319,0.771,5,0.995,7.102-0.252c0.775-0.46,1.836-1.145,2.785-0.905
							c1.826,0.462,0.274,3.69-0.273,4.527C253.71,246.156,253.366,246.676,253.027,247.199z"/>
					</g>
					<g>
						<g>
							<g>
								<g>
									<path d="M211.003,235.195c14.695,1.681,35.424,4.961,49.973,7.627c1.244,0.228,2.532,0.478,3.56,1.216
										s1.715,2.11,1.264,3.292c-0.386,1.01-1.451,1.583-2.48,1.917c-3.411,1.105-7.11,0.513-10.644-0.089
										c-15.479-2.637-30.958-5.274-46.437-7.911L211.003,235.195z"/>
								</g>
							</g>
							<path d="M192.216,241.816c3.908,1.165,7.829,2.335,11.871,2.992c1.93,0.314,4.053,0.478,5.729-0.489
								c1.609-0.928,2.426-2.68,3.098-4.339c0.635-1.571,1.226-3.157,1.771-4.757c0.281-0.825,0.553-1.703,0.336-2.543
								c-0.389-1.509-2.14-2.275-3.714-2.743c-3.831-1.139-7.817-1.744-11.787-2.346c-1.997-0.303-3.995-0.605-5.993-0.908
								c-0.874-0.132-1.823-0.176-2.644-0.466c-0.876-0.31-1.831-0.409-2.758-0.267c-0.704,0.108-1.47,0.43-1.682,1.071
								c-0.201,0.609,0.205,1.273,0.768,1.622s1.252,0.46,1.915,0.581c0.663,0.122,1.351,0.274,1.866,0.684
								c0.258,0.206,0.473,0.532,0.355,0.831c-0.108,0.275-0.443,0.4-0.745,0.469c-0.879,0.199-1.81,0.188-2.681-0.031
								c-0.554-0.139-1.084-0.361-1.648-0.461c-0.564-0.1-1.194-0.059-1.646,0.277c-0.593,0.442-0.7,1.298-0.395,1.946
								c0.305,0.648,0.936,1.112,1.606,1.435c0.67,0.324,1.396,0.533,2.077,0.835c0.681,0.303,1.337,0.721,1.709,1.337
								c0.163,0.27,0.251,0.645,0.02,0.87c-0.268,0.26-0.725,0.12-1.075-0.026c-1.207-0.506-2.47-0.895-3.762-1.159
								c-0.408-0.084-0.856-0.15-1.229,0.031c-0.363,0.176-0.57,0.556-0.641,0.934c-0.356,1.912,1.729,2.366,3.19,2.802
								C188.157,240.605,190.186,241.21,192.216,241.816z"/>
						</g>
						<g>
							<path style="fill:#F7C76C;" d="M195.404,262.144c-0.051,0.507-0.1,1.034,0.077,1.511c0.177,0.477,0.653,0.885,1.156,0.807
								c0.627-0.097,0.918-0.816,1.084-1.428c1.609-5.938,2.331-12.074,3.048-18.185c0.335-2.853,0.67-5.706,1.005-8.559
								c0.093-0.796,0.183-1.626-0.089-2.379c-0.272-0.754-1.024-1.399-1.814-1.269c-1.039,0.172-1.448,1.424-1.625,2.462
								c-0.588,3.437-0.624,6.903-1.087,10.34c-0.469,3.479-0.77,6.988-1.124,10.483C195.824,258,195.614,260.072,195.404,262.144z"
								/>
							<g>
								<path style="fill:#F2A10A;" d="M194.879,224.082c-0.805,0.176-1.697,0.554-2.377,0.979
									c-1.678,1.047-2.837,2.748-3.768,4.492c-0.818,1.533-1.219,3.171-1.699,4.839c-0.546,1.896-0.877,3.853-0.983,5.823
									c-0.048,0.884-0.019,1.859,0.565,2.524c0.471,0.536,1.2,0.75,1.889,0.938c4.262,1.167,8.524,2.334,12.785,3.501
									c1.464,0.401,3.19,0.753,4.368-0.204c0.697-0.566,1.023-1.483,1.102-2.377c0.079-0.894-0.055-1.791-0.115-2.687
									c-0.146-2.213,0.182-4.473,1.086-6.498c0.904-2.025,2.398-3.806,4.311-4.927c0.525-0.308,1.133-0.63,1.293-1.217
									c0.194-0.713-0.384-1.396-0.971-1.844c-1.979-1.507-4.506-2.07-6.965-2.445c-2.337-0.356-4.691-0.577-7.047-0.754
									c-1.032-0.077-2.303-0.367-3.323-0.174C194.979,224.061,194.93,224.071,194.879,224.082z"/>
								<g>
									<path style="fill:#F7C76C;" d="M188.563,241.197c0.407-5.426,2.972-10.533,6.483-14.691
										c0.923-1.093,2.049-2.199,3.475-2.316c-2.535,2.796-5.07,5.638-6.956,8.907c0,0.292-0.495,0.895-0.635,1.171
										c-0.219,0.431-0.426,0.869-0.617,1.313c-0.375,0.869-0.697,1.762-0.949,2.675c-0.508,1.833-0.701,3.705-0.578,5.602
										C188.553,242.953,188.492,242.135,188.563,241.197z"/>
									<path style="fill:#F7C76C;" d="M202.421,224.136c0.102,0.613-0.275,1.194-0.639,1.698
										c-2.724,3.766-5.801,7.364-7.571,11.662c-0.949,2.304-1.327,5.147-2.686,7.244c-0.02-1.353,0.41-2.866,0.736-4.175
										c0.384-1.537,0.884-3.044,1.494-4.506c1.219-2.924,2.873-5.668,4.897-8.106
										C199.794,226.574,201.056,225.294,202.421,224.136z"/>
									<path style="fill:#F7C76C;" d="M206.843,225.088c0.178,0.644-0.257,1.282-0.671,1.807
										c-2.024,2.571-4.117,5.104-5.803,7.908c-1.686,2.804-2.963,5.923-3.187,9.187c-0.041,0.601,0.023,1.684-0.45,2.115
										c-0.415-1.118,0.037-3.049,0.205-4.198c0.236-1.612,0.63-3.201,1.167-4.74c1.064-3.046,2.691-5.898,4.785-8.354
										C204.068,227.434,205.393,226.178,206.843,225.088z"/>
									<path style="fill:#F7C76C;" d="M209.303,227.538c0.539-0.437,1.146-0.867,1.84-0.891c-0.331,0.895-1.076,1.56-1.762,2.224
										c-3.925,3.799-6.666,8.786-7.839,14.117c-0.312,1.416-0.461,2.836-0.599,4.276c-0.349-5.782,1.269-11.515,4.837-16.114
										C206.812,229.818,207.994,228.6,209.303,227.538z"/>
								</g>
							</g>
						</g>
					</g>
					<g>
						<path style="fill:#F7B385;" d="M255.532,235.554c-0.298-0.54-0.674-1.023-1.14-1.353c-1.077-0.764-2.708-0.97-3.889-0.34
							c-0.566-1.549-2.003-2.745-3.629-3.019c-1.626-0.275-3.376,0.383-4.42,1.66c-0.638-1.528-2.21-2.619-3.864-2.683
							c-1.655-0.064-3.306,0.902-4.061,2.376c0.135-0.932-0.803-1.748-1.742-1.817c-0.939-0.07-1.831,0.393-2.628,0.894
							c-2.399,1.508-4.516,3.531-5.868,6.021c-1.352,2.49-1.894,5.468-1.213,8.219c0.257,1.037,0.723,2.085,1.598,2.698
							c0.875,0.613,2.235,0.617,2.9-0.22c0.692,1.576,2.29,2.714,4.005,2.852c1.715,0.138,3.475-0.729,4.41-2.174
							c0.435,1.419,1.406,2.762,2.815,3.228c1.409,0.466,3.219-0.247,3.6-1.681c0.001,1.185,0.633,2.352,1.625,3
							c0.992,0.649,2.314,0.76,3.4,0.286c1.388-0.605,2.249-2.015,2.796-3.426c0.548-1.411,0.879-2.92,1.649-4.224
							c0.529-0.897,1.255-1.676,2.051-2.342c0.847-0.708,1.733-1.173,2.719-1.683c-0.01-1.407-0.021-2.828-0.342-4.198
							C256.15,236.971,255.9,236.22,255.532,235.554z"/>
						<g>
							<path style="fill:#E0764C;" d="M232.589,233.821c-1.59,2.017-2.66,4.404-3.409,6.86c-0.749,2.457-1.192,4.995-1.632,7.525
								c-0.607-2.34-0.309-4.849,0.494-7.128c0.803-2.28,2.089-4.358,3.477-6.337c0.572-0.816,1.403-2.13,2.406-2.443
								c0.035,0.286-0.356,0.47-0.54,0.64C233.092,233.207,232.834,233.51,232.589,233.821z"/>
							<path style="fill:#E0764C;" d="M236.065,248.894c-0.386-1.999,0.003-4.08,0.713-5.988c0.71-1.908,1.731-3.682,2.664-5.491
								c0.868-1.685,1.648-3.641,2.945-5.053c-0.255,0.892-1.009,1.779-1.442,2.612c-0.552,1.061-1.048,2.151-1.5,3.258
								c-0.9,2.202-1.627,4.47-2.29,6.753C236.776,246.283,236.42,247.588,236.065,248.894z"/>
							<path style="fill:#E0764C;" d="M242.612,250.694c-0.208-0.662-0.145-1.384,0.043-2.052c0.188-0.668,0.494-1.295,0.777-1.929
								c1.017-2.281,1.742-4.683,2.743-6.972c0.989-2.273,2.308-4.491,4.267-6.059c-1.61,1.613-2.682,3.994-3.652,6.05
								c-1.07,2.269-1.972,4.614-2.81,6.977C243.51,248.034,243.061,249.364,242.612,250.694z"/>
						</g>
					</g>
				</g>
			</g>
			<path style="fill:#3F7EA6;" d="M217.264,414.219c-3.015-7.651-6.18-14.401-8.467-22.417c-2.613-9.156-5.226-18.312-7.839-27.468
				c-5.155-18.065-10.311-36.13-15.466-54.194c-1.845-6.465-3.738-13.038-7.396-18.68c-6.664-10.28-16.511-11.319-27.81-12.011
				c-13.166-0.806-26.433,0.093-39.373,2.646c-8.15,1.608-16.142,3.653-22.051,9.849c-6.066,6.361-6.367,17.987-5.739,26.32
				c0.647,8.579,2.891,16.952,5.319,25.207c7.517,25.561,16.896,50.574,28.038,74.776"/>
			<g>
				<path style="fill:#F7B385;" d="M155.125,271.407c0.322,2.533,0.142,5.051,0.485,7.529c0.431,3.115,1.097,6.201,1.529,9.32
					c0.642,4.633,2.73,9.865-0.861,13.809c-2.135,2.345-5.381,3.466-8.551,3.547s-6.293-0.781-9.264-1.891
					c-4.657-1.74-9.076-4.113-13.105-7.025c-2.022-1.461-3.765-3.421-5.817-4.798c-1.398-0.938-3.843-1.298-4.66-2.936
					c-0.295-0.591-0.142-1.297,0.013-1.94c1.868-7.765,3.036-15.698,3.491-23.672c0.431-7.558-0.387-14.999,0.646-22.471
					c0.225-1.626-0.014-6.234,1.639-7.161c1.335-0.749,3.63,0.881,4.81,1.377c5.25,2.209,11.918,2.097,17.535,2.073
					c0.633-0.003,1.267-0.012,1.9-0.028c0.951-0.024,1.941-0.055,2.809,0.336c1.126,0.508,1.85,1.666,2.145,2.865
					C152.347,250.441,153.792,260.934,155.125,271.407z"/>
				<path style="fill:#E0764C;" d="M155.64,279.953c0.009,0.323,0.017,0.647,0.022,0.97c0.006,0.404,0.005,0.825-0.168,1.19
					c-0.697,1.467-4.203,1.405-5.553,1.332c-2.476-0.133-4.932-0.581-7.303-1.306c-4.822-1.473-9.293-4.084-12.961-7.542
					c-5.897-5.559-9.703-13.198-10.993-21.199c-0.202-1.255-0.414-2.692-0.066-3.942c0.365-1.311,1.402-1.245,2.664-1.27
					c3.727-0.071,7.452,0.415,11.084,1.254c4.549,1.05,9.135,2.738,12.731,5.802c1.774,1.512,3.326,3.359,4.96,5.029
					c0.998,1.02,2.221,2.219,3.007,3.414c0.9,1.369,1.045,3.489,1.348,5.07C155.118,272.447,155.53,276.195,155.64,279.953z"/>
			</g>
			<g>
				<path style="fill:#F7B385;" d="M177.063,229.03c-0.048,6.612-0.339,13.222-0.87,19.813c-0.308,3.825-0.735,7.767-2.602,11.12
					c-3.636,6.527-11.78,9.144-19.247,9.406c-12.159,0.428-24.421-4.036-33.46-12.18c-17.113-15.418-19.092-39.68-10.769-60.187
					c3.104-7.647,8.08-15.014,15.559-18.504c4.738-2.211,10.113-2.692,15.335-2.459c6.597,0.294,13.277,1.732,18.889,5.215
					c8.59,5.331,15.704,15.816,16.446,25.943C176.877,214.46,177.116,221.746,177.063,229.03z"/>
				<path d="M178.562,191.809c-0.789,2.898-2.266,5.669-4.282,8.01c-3.279,3.806-7.782,6.439-12.566,7.97
					c-4.784,1.532-9.853,2.01-14.876,1.976c2.118-4.173,2.162-9.338,0.116-13.546c-3.077,11.733-13.482,19.466-25.391,20.106
					c-3.749,0.202-7.427-0.483-11.148-0.634c-2.499-0.102-5.16-1.786-6.049-4.154c-0.552-1.471-0.599-3.081-0.53-4.651
					c0.334-7.633,3.33-15.124,8.353-20.881c3.079-3.529,6.908-6.393,11.14-8.394c2.111-0.998,4.414-1.921,6.717-2.358
					c0.869-0.165,1.73,0.012,2.585-0.143c1.154-0.21,2.212-0.994,3.314-1.385c3.328-1.18,6.788-1.943,10.257-2.569
					c4.97-0.898,10.047-1.543,15.065-0.966c5.017,0.577,10.016,2.474,13.572,6.061C179.113,180.562,180.033,186.406,178.562,191.809
					z"/>
				<g>
					<path style="fill:#E0764C;" d="M161.668,238.082c0.384,0.853,0.772,1.719,0.902,2.646c0.13,0.926-0.032,1.936-0.644,2.643
						c-0.793,0.917-2.198,1.125-3.349,0.741c-1.15-0.383-2.076-1.257-2.817-2.216c-3.087-3.996-3.438-9.718-2.889-14.558
						c0.085-0.752,0.212-1.529,0.641-2.152c0.429-0.623,1.244-1.042,1.957-0.788c0.867,0.31,1.153,1.364,1.367,2.259
						C157.799,230.701,159.973,234.32,161.668,238.082z"/>
					<g>
						<path d="M145.284,226.423c-0.045,0.872-0.292,1.782-1.07,2.453c-0.778,0.672-2.206,1.016-3.268,0.586
							c-0.892-0.361-1.285-1.129-1.463-1.851c-0.367-1.483-0.113-3.042,0.719-4.426c0.581-0.966,2.337-2.179,3.689-1.092
							C145.167,223.118,145.35,225.137,145.284,226.423z"/>
						<path style="fill:none;stroke:#000000;stroke-linecap:round;stroke-linejoin:round;stroke-miterlimit:10;" d="M149.6,217.97
							c-1.019-3.206-4.244-5.573-7.607-5.585c-3.364-0.013-6.606,2.33-7.649,5.528"/>
					</g>
					<g>
						<path d="M169.52,226.888c-0.045,0.872-0.292,1.782-1.07,2.454c-0.778,0.672-2.206,1.016-3.268,0.586
							c-0.892-0.361-1.285-1.129-1.463-1.851c-0.367-1.483-0.113-3.042,0.719-4.426c0.581-0.966,2.337-2.179,3.689-1.092
							C169.403,223.583,169.586,225.602,169.52,226.888z"/>
						<path style="fill:none;stroke:#000000;stroke-linecap:round;stroke-linejoin:round;stroke-miterlimit:10;" d="
							M161.133,213.019c1.58-1.798,4.342-2.279,6.601-1.486c2.258,0.794,4.015,2.684,5.057,4.839"/>
					</g>
					<g>
						<path d="M150.025,248.253c0.791,0.142,1.587,0.256,2.385,0.34c3.731,0.389,7.497,0.194,11.24-0.061
							c-0.1,2.707,0.421,5.352,0.421,8.031c-0.725,0.312-1.474,0.554-2.235,0.761C158.825,253.296,154.687,250.131,150.025,248.253z
							"/>
						<path style="fill:#F2594B;" d="M140.818,245.094c0.25-0.24,0.658-0.056,0.952,0.127c1.782,1.11,3.732,1.911,5.757,2.47
							c0.822,0.227,1.656,0.411,2.497,0.562c4.662,1.878,8.8,5.043,11.811,9.07c-0.248,0.068-0.492,0.147-0.743,0.203
							c-8.524,1.918-18.452-2.709-20.372-11.711C140.667,245.566,140.635,245.27,140.818,245.094z"/>
					</g>
				</g>
				<path d="M124.759,234.842c-0.067,10.956,1.678,21.961,4.776,32.531c1.39,4.743,3.003,9.439,3.849,14.308
					c0.845,4.869,0.888,9.994-0.817,14.633c-1.016,2.762-2.765,5.413-5.413,6.698c-3.461,1.681-7.691,0.662-10.992-1.317
					s-5.99-4.816-9.065-7.128c-5.401-4.06-12.485-7.067-19.313-5.669c-1.676,0.343-3.604,0.861-4.951-0.192
					c-1.274-0.997-1.324-2.897-1.059-4.493c0.999-6.012,4.683-11.051,8.102-15.922c3.622-5.161,6.338-10.451,8.605-16.295
					c1.996-5.146,2.598-10.729,2.775-16.208c0.239-7.382-0.234-14.842,1.138-22.1c0.377-1.995,0.924-4.029,2.185-5.62
					c1.073-1.354,2.582-2.284,4.09-3.128c5.792-3.242,12.058-5.633,18.537-7.076c1.088-0.242,2.333-0.428,3.23,0.234
					c1.448,1.068,0.882,3.316,0.225,4.991C126.646,213.316,124.824,224.055,124.759,234.842z"/>
			</g>
			<g>
				<g>
					<path style="fill:#F7B385;" d="M63.07,396.49c-0.014,0.304-0.029,0.608-0.042,0.913c-0.096,2.126-0.136,4.399,0.992,6.204
						c1.834,2.938,5.846,3.404,9.305,3.564c4.568,0.211,11.745,2.311,14.902-1.483c3.725-4.477,5.962-11.556,8.235-16.872
						c4.842-11.326,8.718-23.096,11.476-35.103c3.931-16.93,7.225-35.817,0.317-52.447c-2.678-6.445-11.782-21.452-18.647-11.036
						c-8.741,13.264-13.136,29.747-17.097,45.004c-2.524,9.724-4.981,18.988-6.405,29.062
						C64.597,374.973,63.583,385.72,63.07,396.49z"/>
					<path style="fill:#E0764C;" d="M86.818,363.33c-4.589,3.57-8.804,7.62-12.539,12.075c-0.711,0.848-1.436,1.793-1.741,2.876
						c-0.292,1.037-0.122,2.196-0.287,3.275c-0.382,2.502-0.657,5.019-0.932,7.534c1.913-1.862,3.826-3.724,5.739-5.587
						c4.15-4.04,8.301-8.08,12.477-12.094c1.809-1.738,3.478-3.566,5.412-5.179c1.886-1.573,3.852-3.047,5.74-4.617
						c3.512-2.922,6.85-6.332,8.36-10.644C101.056,353.906,93.536,358.104,86.818,363.33z"/>
					<path style="fill:#2F5F7D;" d="M94.052,326.933c-6.348-2.17-13.088-3.05-19.796-3.106c1.114-4.043,2.227-8.086,3.341-12.129
						c0.817-2.966,1.831-6.206,4.445-7.828c1.679-1.042,3.788-1.22,5.729-0.848c1.941,0.373,3.745,1.253,5.472,2.213
						c6.521,3.626,12.39,8.629,16.303,14.983c3.803,6.176,5.94,14.184,4.284,21.388c-1.733-0.51-2.578-1.825-3.324-3.351
						c-0.939-1.921-1.934-3.18-3.65-4.516C103.023,330.756,98.64,328.502,94.052,326.933z"/>
				</g>
				<path style="fill:#F7B385;" d="M155.364,328.12c0.574,0.782,1.088,1.609,1.596,2.268c1.482,1.918,2.965,3.837,4.447,5.755
					c-16.543,20.67-35.118,39.712-55.371,56.764c-9.311,7.839-19.533,15.851-32.364,14.741c-3.564-0.308-7.322-1.593-9.313-4.564
					c-2.121-3.166-1.43-6.743-0.785-10.227c0.555-2.999,3.603-5.685,5.546-7.977c4.768-5.623,9.909-10.928,15.375-15.875
					c11.678-10.566,24.932-18.577,38.162-26.953c8.285-5.246,16.693-10.299,25.215-15.153c1.502-0.856,3.271-1.73,4.884-1.106
					C153.799,326.193,154.63,327.119,155.364,328.12z"/>
				<g>
					<path style="fill:#F7B385;" d="M160.832,309.53c0.03-0.022,0.059-0.043,0.089-0.064c2.976-2.139,6.998-3.267,8.639-6.544
						c0.33-0.659,0.542-1.376,0.928-2.004c0.386-0.628,1.006-1.179,1.742-1.213c0.726-0.033,1.402,0.46,1.758,1.094
						c0.355,0.634,0.439,1.385,0.431,2.112c-0.029,2.98-1.447,5.781-3.177,8.208c-1.73,2.427-3.8,4.605-5.421,7.106
						c-0.471,0.726-0.914,1.637-0.546,2.421c0.436,0.929,1.744,1.053,2.713,0.715c3.721-1.297,7.23-3.568,10.801-5.257
						c3.767-1.782,7.615-3.42,11.612-4.619c1.041-0.312,2.111-0.597,3.197-0.55c1.086,0.047,2.204,0.472,2.852,1.344
						c0.937,1.259,0.641,3.104-0.229,4.41c-0.87,1.306-2.199,2.22-3.432,3.191c-5.485,4.32-9.523,10.249-14.962,14.627
						c-4.396,3.539-9.603,5.952-15.013,7.483c-2.13,0.603-4.264,1.096-6.479,1.243c-1.703,0.113-3.505-0.637-5.039-1.345
						c-3.176-1.465-5.964-3.781-7.938-6.673c-0.726-1.063-1.365-2.284-1.269-3.568c0.14-1.861,1.729-3.228,3.139-4.45
						c3.124-2.709,5.943-5.77,8.386-9.106C155.829,315.065,157.808,311.74,160.832,309.53z"/>
					<path style="fill:#E0764C;" d="M189.972,319.039c0.624-0.409,1.235-0.837,1.829-1.294c0.839-0.645,1.646-1.351,2.254-2.217
						c0.608-0.866,1.006-1.91,0.952-2.967c-0.032-0.627-0.308-1.334-0.911-1.508c0.76,1.001,0.515,2.495-0.226,3.511
						c-0.74,1.016-1.866,1.668-2.953,2.3c-1.613,0.939-3.214,1.901-4.8,2.885c-2.644,1.64-5.249,3.342-7.813,5.105
						c-0.536,0.369-1.023,0.831-1.584,1.144c-0.681,0.379-1.366,0.749-2.043,1.135c-1.021,0.582-2.032,1.181-3.033,1.796
						c-0.339,0.209-0.758,0.436-1.044,0.717c-0.088,0.087-0.478,1.078-0.306,1.034c1.026-0.26,1.931-0.855,2.813-1.44
						c0.431-0.286,0.862-0.571,1.293-0.857c2.58-1.711,5.128-3.424,7.817-4.945C184.802,321.975,187.483,320.671,189.972,319.039z"
						/>
					<path style="fill:#E0764C;" d="M192.156,320.165c-0.811,0.535-1.623,1.069-2.436,1.601c-2.679,1.754-5.367,3.494-8.065,5.22
						c-2.622,1.677-5.219,3.498-7.93,5.017c-0.342,0.191-1.067,0.782-0.695,1.268c0.392,0.513,1.391-0.171,1.756-0.42
						c5.968-4.07,11.737-8.423,17.503-12.774C192.245,320.107,192.201,320.136,192.156,320.165z"/>
				</g>
			</g>
		</g>
		<g>
			<g>
				<path style="fill:#D9E5ED;" d="M63.024,380.573L63.024,380.573c-9.872,0-17.875-8.003-17.875-17.875v-19.164h35.75v19.164
					C80.899,372.57,72.896,380.573,63.024,380.573z"/>
				<path style="fill:#D9E5ED;" d="M77.639,404.45H48.41c-1.8,0-3.26,1.46-3.26,3.26l0,0h35.75l0,0
					C80.899,405.909,79.439,404.45,77.639,404.45z"/>
				<rect x="60.078" y="362.259" style="fill:#D9E5ED;" width="5.696" height="42.667"/>
			</g>
			<g>
				<path style="fill:#F2594B;" d="M48.023,355.011h30.381v7.744c0,8.389-6.801,15.19-15.19,15.19l0,0
					c-8.389,0-15.19-6.801-15.19-15.19V355.011z"/>
				<path style="fill:#B54338;" d="M48.023,355.011c-0.033,1.662,1.721,3.319,3.378,3.177c1.221-0.105,2.26-0.941,3.455-1.211
					c1.648-0.372,3.329,0.37,4.814,1.176c1.485,0.806,3.017,1.72,4.707,1.722c1.788,0.002,3.394-1.017,4.912-1.961
					c1.519-0.944,3.205-1.88,4.982-1.688c0.601,0.065,1.181,0.258,1.777,0.357s1.242,0.093,1.765-0.211
					c0.522-0.305,0.59-0.452,0.626-1.538"/>
				<path style="fill:#B54338;" d="M58.149,372.444c-0.468,0.148-0.975,0.355-1.183,0.799c-0.194,0.415-0.053,0.926,0.239,1.279
					c0.292,0.353,0.709,0.575,1.126,0.765c3.333,1.518,7.309,1.436,10.669-0.02c0.414-0.179,0.832-0.388,1.122-0.734
					c0.289-0.346,0.419-0.863,0.198-1.257c-0.143-0.255-0.405-0.42-0.664-0.556c-1.617-0.852-3.705-1.039-5.508-1.097
					C62.121,371.556,60.083,371.833,58.149,372.444z"/>
			</g>
			<rect x="48.023" y="346.527" style="fill:#F2F2F2;" width="30.417" height="6.04"/>
		</g>
		<g>
			<g>
				<g>
					<path style="fill:#F7B385;" d="M554.505,387.184c6.09-2.451,11.668-6.565,16.949-10.598
						c7.542-5.759,15.308-11.896,19.372-20.472c3.025-6.385,3.685-13.545,3.574-20.524c-0.089-5.626,0.32-14.044-2.886-18.969
						c-11.191,6.583-19.561,16.947-27.674,27.084c-2.119,2.648-4.255,5.283-6.358,7.944c-0.365,0.463-6.08,6.454-6.065,6.546
						c-2.275-13.131-4.788-26.221-7.536-39.261c-0.649-3.078-1.5-15.68-4.572-16.969c-1.043-0.438-16.226,4.618-16.285,3.875
						c1.158,14.432,2.5,28.848,4.026,43.246c0.774,7.306,1.595,14.607,2.464,21.903c0.595,4.997,0.474,12.108,4.868,15.559
						c3.044,2.391,7.132,3.088,10.993,2.822C548.551,389.151,551.586,388.358,554.505,387.184z"/>
					<path style="fill:#E0764C;" d="M558.133,365.364c-0.388,2.441-1.07,4.83-2.163,7.042c0.005-0.01-0.855-1.562-0.91-1.782
						c-0.169-0.679-0.197-1.312-0.411-1.986c-0.521-1.638-1.025-3.282-1.541-4.921c-0.306-0.974-0.614-1.948-0.923-2.921
						c-0.261-0.819-0.828-1.875-0.861-2.733c-0.03-0.759,0.537-0.955,1.104-1.384c0.713-0.54,1.399-1.116,2.055-1.724
						c1.312-1.216,2.503-2.563,3.548-4.015c0.354,3.626,0.664,7.271,0.468,10.909C558.436,363.024,558.318,364.2,558.133,365.364z"
						/>
				</g>
				<path style="fill:#6598B8;" d="M565.448,337.355c-0.941,1.09-1.88,2.234-2.332,3.601c-0.581,1.759-0.289,3.678,0.101,5.489
					c2.337,10.84,8.101,20.915,16.261,28.424c0.622,0.572,1.383,1.169,2.217,1.031c0.708-0.117,1.214-0.729,1.629-1.314
					c4.041-5.709,5.664-12.802,6.215-19.774c0.551-6.973,0.121-13.988,0.498-20.973c0.392-7.251,2.048-13.576,5.187-20.079
					c-1.709-1.069-3.682,1.423-5.017,2.269c-2.258,1.431-4.467,2.938-6.618,4.526c-4.225,3.119-8.229,6.536-11.972,10.219
					C569.471,332.882,567.413,335.078,565.448,337.355z"/>
				<g>
					<g>
						<path style="fill:#F7B385;" d="M518.496,304.046c1.358,2.288,3.06,4.447,5.33,5.835s5.187,1.905,7.636,0.865
							c0.797-0.338,1.529-0.829,2.353-1.092c1.213-0.386,2.541-0.214,3.701-0.757c1.007-0.472,2.165-0.607,3.117-1.218
							c1.581-1.014,2.132-2.739,2.714-4.4c0.684-1.955,1.149-3.428,0.496-5.521c-0.593-1.899-1.733-3.57-2.714-5.301
							c-0.712-1.255-1.346-2.553-1.897-3.886c-0.248-0.6-0.31-1.118-0.874-1.421c-0.543-0.292-1.344-0.303-1.941-0.264
							c-1.113,0.074-2.036,0.552-3.083,0.816c-0.913,0.23-2.066-0.074-3.013-0.117c-2.215-0.099-4.438-0.015-6.64,0.252
							c-2.572,0.312-5.45,0.735-7.833,1.802c-2.205,0.988-1.409,3.371-0.978,5.28C515.594,298.127,516.818,301.22,518.496,304.046z"
							/>
						<path style="fill:#E0764C;" d="M516.572,295.096c0.149,0.451,0.31,0.897,0.503,1.332c1.175,2.659,2.765,5.135,4.703,7.302
							c1.696,1.897,3.917,3.658,6.46,3.583c0.705-0.021,1.398-0.186,2.049-0.454c0.499-0.205,1.306-0.51,1.664-0.928
							c0.188-0.219,0.269-0.585,0.415-0.839c0.18-0.313,0.391-0.608,0.62-0.887c0.464-0.565,1.005-1.064,1.562-1.536
							c0.897-0.76,1.849-1.471,2.623-2.362c0.81-0.931,1.55-1.896,2.269-2.909c0.762-1.073,1.502-2.162,2.235-3.255
							c0.583-0.869,1.734-1.963,1.452-3.097c-0.224-0.901-1.143-0.917-1.914-1.027c-1.265-0.18-2.478-0.716-3.463-1.531
							c-1.058-0.875-1.889-2.082-3.158-2.605c-1.456-0.601-3.133-0.149-4.554,0.53c-1.942,0.927-3.671,2.255-5.616,3.174
							s-4.264,1.4-6.233,0.534c-0.726-0.32-1.726-0.806-2.53-0.495c-1.227,0.474-0.369,1.887-0.049,2.642
							C515.997,293.18,516.258,294.147,516.572,295.096z"/>
					</g>
					<path style="fill:#D9E5ED;" d="M502.883,294.771l43.569-26.026c2.295,1.287,7.186,4.441,10.71,10.547
						c2.877,4.984,3.539,9.676,3.711,12.238c-16.208,6.589-32.416,13.177-48.624,19.766c-1.652-1.348-4.112-3.691-6.159-7.254
						C503.967,300.344,503.196,296.911,502.883,294.771z"/>
					<path style="fill:#F2F2F2;" d="M506.725,295.977l39.11-23.925c1.951,1.333,5.731,4.319,8.185,9.54
						c1.459,3.104,1.96,5.956,2.136,7.945c-14.481,5.645-28.962,11.289-43.443,16.934c-1.969-3.375-3.938-6.751-5.907-10.126"/>
					<path style="fill:#6598B8;" d="M552.108,291.288c-12.515,6.152-25.359,11.332-38.524,15.931
						c-3.486-2.811-5.954-6.857-6.858-11.243c1.572-2.299,4.586-2.657,7.348-2.296c2.762,0.361,5.506,1.305,8.269,0.946
						c3.076-0.401,5.688-2.347,8.285-4.042c2.597-1.696,5.603-3.252,8.661-2.731c2.001,0.341,3.825,1.553,5.855,1.581
						c2.609,0.035,4.977-1.901,7.58-1.722c1.332,0.092,2.612,0.772,3.433,1.825L552.108,291.288z"/>
					<g>
						<path style="fill:#F7B385;" d="M511.358,283.379c0.085-0.536,0.251-1.049,0.537-1.462c0.662-0.955,1.95-1.615,3.117-1.448
							c0.004-1.451,0.834-2.873,2.097-3.588c1.263-0.715,2.909-0.696,4.156,0.047c0.07-1.456,1.043-2.831,2.393-3.38
							c1.35-0.55,3.006-0.245,4.073,0.748c-0.391-0.731,0.14-1.687,0.896-2.027c0.756-0.339,1.633-0.224,2.443-0.048
							c2.438,0.528,4.797,1.567,6.664,3.223c1.866,1.655,3.208,3.957,3.471,6.438c0.099,0.935,0.027,1.943-0.513,2.712
							c-0.541,0.77-1.665,1.181-2.466,0.688c-0.099,1.512-1.081,2.933-2.459,3.562c-1.378,0.629-3.095,0.439-4.302-0.476
							c0.065,1.305-0.335,2.708-1.361,3.517c-1.026,0.808-2.738,0.762-3.484-0.311c0.355,0.981,0.182,2.136-0.444,2.97
							c-0.626,0.835-1.687,1.323-2.728,1.257c-1.33-0.085-2.466-0.993-3.342-1.996c-0.877-1.004-1.604-2.153-2.632-3.001
							c-0.707-0.583-1.541-1.011-2.4-1.323c-0.914-0.332-1.786-0.451-2.755-0.577c-0.414-1.167-0.832-2.347-0.977-3.577
							C511.272,284.738,511.253,284.041,511.358,283.379z"/>
						<g>
							<path style="fill:#E0764C;" d="M529.826,275.061c1.921,1.192,3.523,2.846,4.88,4.655c1.357,1.808,2.485,3.776,3.609,5.738
								c-0.2-2.118-1.199-4.105-2.548-5.751c-1.349-1.646-3.037-2.98-4.779-4.201c-0.719-0.503-1.801-1.342-2.724-1.3
								c0.057,0.247,0.436,0.282,0.639,0.368C529.225,274.704,529.53,274.877,529.826,275.061z"/>
							<path style="fill:#E0764C;" d="M531.472,288.578c-0.28-1.77-1.227-3.376-2.387-4.742c-1.16-1.366-2.537-2.527-3.852-3.745
								c-1.224-1.134-2.457-2.519-3.953-3.298c0.479,0.662,1.369,1.17,1.977,1.729c0.775,0.713,1.513,1.466,2.219,2.246
								c1.406,1.552,2.688,3.211,3.922,4.902C530.1,286.631,530.786,287.604,531.472,288.578z"/>
							<path style="fill:#E0764C;" d="M526.594,292.032c-0.027-0.61-0.296-1.189-0.651-1.685c-0.356-0.497-0.797-0.924-1.221-1.363
								c-1.526-1.583-2.847-3.353-4.362-4.946c-1.5-1.584-3.258-3.024-5.349-3.734c1.816,0.852,3.418,2.501,4.838,3.911
								c1.567,1.557,3.016,3.227,4.419,4.931C525.052,290.1,525.823,291.066,526.594,292.032z"/>
						</g>
					</g>
					<path style="fill:#F7B385;" d="M538.402,308.588c-1.574,0.275-3.193,0.771-4.544-0.454c-0.996-0.903-1.352-2.445-0.853-3.693
						c0.562-1.405,1.974-2.249,2.947-3.334c0.503-0.561,1.206-0.922,1.718-1.498c0.561-0.63,1.025-1.342,1.446-2.072
						c0.824-1.428,1.522-2.954,2.628-4.177c1.741-1.926,4.386-2.91,6.982-2.902c0.65,0.002,1.4,0.121,1.733,0.68
						c0.258,0.434,0.163,1.005-0.093,1.441c-0.256,0.435-0.649,0.77-1.015,1.118c-1.563,1.485-2.75,3.363-3.421,5.412
						c-0.452,1.381-0.673,2.832-1.179,4.194c-0.24,0.646-0.552,1.271-0.962,1.827c-0.456,0.618-1.027,0.929-1.586,1.415
						C541.075,307.526,539.922,308.323,538.402,308.588z"/>
				</g>
			</g>
			<path style="fill:#3F7EA6;" d="M575.732,425.024c-1.251-10.306-0.81-20.734-0.365-31.106c0.752-17.572,1.517-35.273,5.233-52.519
				c3.092-14.348,7.604-27.244,22.263-33.373c10.492-4.387,22.41-4.096,33.562-1.865c21.912,4.382,24.468,22.846,26.854,42.002
				c2.801,22.481,3.304,45.249,1.478,67.83"/>
			<g>
				<g>
					<path style="fill:#F7B385;" d="M606.748,298.338c-0.302,2.248-0.203,4.475-0.52,6.675c-0.399,2.765-0.985,5.51-1.385,8.279
						c-0.595,4.113-2.353,8.783,0.44,12.211c1.661,2.038,4.228,2.973,6.755,2.988c2.526,0.015,5.031-0.803,7.42-1.839
						c3.744-1.623,7.309-3.803,10.574-6.453c1.638-1.33,3.063-3.096,4.723-4.351c1.131-0.855,3.087-1.218,3.768-2.683
						c0.246-0.529,0.136-1.151,0.024-1.717c-1.352-6.842-2.141-13.845-2.361-20.896c-0.209-6.684,0.576-13.286-0.115-19.884
						c-0.15-1.436,0.122-5.52-1.179-6.311c-1.051-0.639-2.91,0.845-3.86,1.305c-4.226,2.05-9.54,2.069-14.017,2.148
						c-0.505,0.009-1.01,0.012-1.514,0.009c-0.758-0.004-1.547-0.014-2.245,0.348c-0.906,0.47-1.505,1.508-1.761,2.575
						C609.336,279.726,607.997,289.042,606.748,298.338z"/>
					<path style="fill:#E0764C;" d="M606.185,305.914c-0.013,0.286-0.025,0.573-0.034,0.859c-0.012,0.358-0.019,0.73,0.113,1.051
						c0.53,1.287,3.326,1.169,4.404,1.081c1.977-0.162,3.943-0.603,5.846-1.286c3.871-1.39,7.483-3.781,10.469-6.908
						c4.8-5.027,7.971-11.858,9.142-18.965c0.184-1.115,0.378-2.391,0.123-3.491c-0.268-1.154-1.096-1.078-2.102-1.077
						c-2.97,0.003-5.949,0.501-8.86,1.307c-3.646,1.01-7.332,2.587-10.254,5.364c-1.441,1.37-2.712,3.033-4.044,4.54
						c-0.814,0.921-1.81,2.004-2.458,3.076c-0.742,1.228-0.895,3.108-1.165,4.513C606.735,299.259,606.339,302.585,606.185,305.914z
						"/>
				</g>
				<path style="fill:#6598B8;" d="M597.652,319.105c-0.105,0.565-0.195,1.134-0.269,1.705c-0.665,5.124,0.001,10.516,2.513,15.031
					c0.589,1.06,1.476,2.18,2.689,2.181c1.046,0.001,1.884-0.844,2.512-1.681c1.283-1.71,2.247-3.658,2.83-5.715
					c0.235-0.83,0.687-1.888,1.544-1.789c0.517,0.06,0.866,0.551,1.087,1.022c0.762,1.623,0.814,3.472,1.083,5.245
					c0.269,1.772,0.862,3.649,2.326,4.684c1.984,1.403,4.718,0.735,6.981-0.15c4.534-1.773,8.878-4.274,12.31-7.766
					c1.715-1.745,2.827-3.738,4.209-5.711c1.53-2.184,2.761-4.586,3.512-7.15c1.741-5.944,0.564-12.984-3.992-17.18
					c-0.286,0.576-0.582,1.146-0.889,1.711c-3.069,5.648-7.172,10.724-12.011,14.951c-2.42,2.114-5.024,4.017-7.777,5.674
					c-1.859,1.119-5.902,4.234-7.945,2.076c-0.706-0.745-0.979-1.791-1.19-2.795c-1.378-6.567-1.162-13.35-0.94-20.056
					c-1.282,0.791-2.686,1.784-3.713,2.889c-1.049,1.129-1.635,2.92-2.239,4.338C599.121,313.347,598.191,316.187,597.652,319.105z"
					/>
			</g>
			<g>
				<g>
					<path d="M678.152,266.475c-0.126,0.771-0.195,1.553-0.197,2.346c-0.01,3.943,1.651,7.708,3.707,11.072
						c0.586,0.959,1.218,1.922,1.46,3.02c0.243,1.097,0.005,2.383-0.889,3.064c-1.005,0.765-2.434,0.531-3.635,0.141
						c-7.107-2.306-12.37-8.758-14.575-15.897c-2.204-7.14-1.679-14.877,0.025-22.153c0.976-4.17,2.322-8.596,0.859-12.621
						c-1.119-3.077-3.927-4.669-6.048-7.038c-2.222-2.481-4.079-5.318-5.205-8.465c-1.876-5.242-1.509-11.479,1.855-15.914
						c3.001-3.957,8.096-6.055,13.061-5.945c4.965,0.11,9.754,2.264,13.559,5.455c3.805,3.191,6.687,7.368,8.916,11.806
						c2.169,4.316,3.771,8.977,4.124,13.795c0.763,10.419-5.446,18.102-11.372,25.903
						C681.204,258.456,678.835,262.304,678.152,266.475z"/>
					<path style="fill:#3F7EA6;" d="M656.623,213.316c2.459,3.075,4.733,6.298,6.806,9.646c0.33,0.533,0.663,1.094,0.716,1.719
						c0.094,1.108-0.699,2.073-1.443,2.9c-3.682,4.088-7.383,8.158-11.102,12.211c-2.22-6.736-4.456-13.584-8.16-19.68
						c1.568,0.877,5.076-1.801,6.493-2.6C652.226,216.218,654.46,214.817,656.623,213.316z"/>
					<path d="M582.86,229.523c0.19-0.645,0.398-1.286,0.621-1.923c3.573-10.16,15.096-17.708,24.454-21.959
						c6.901-3.135,14.607-5.223,22.052-3.799c7.445,1.423,14.439,7.08,15.558,14.576c3.612,0.793,6.705,3.264,8.82,6.298
						c5.643,8.094,7.491,19.054,6.092,28.705c-1.48,10.207-6.477,19.439-14.639,25.717c-6.36,4.892-14.797,6.985-22.706,5.634
						c-6.987-1.194-13.277-4.871-19.22-8.734c-6.083-3.954-12.105-8.284-16.367-14.155
						C581.089,251.019,579.825,239.806,582.86,229.523z"/>
				</g>
				<g>
					<path style="fill:#F7B385;" d="M587.255,260.38c0.026,0.7,0.042,1.401,0.045,2.102c0.015,4.116-0.435,8.222-0.451,12.337
						c-0.016,4.116,0.425,8.316,2.122,12.066c3.002,6.632,9.214,9.189,16.163,9.433c6.706,0.236,13.448-1.203,19.515-4.056
						c2.72-1.279,5.555-2.729,7.563-4.996c2.05-2.315,4.448-3.886,6.089-6.624c1.601-2.669,2.644-5.633,3.521-8.62
						c1.991-6.782,3.166-13.802,3.513-20.861c0.189-3.837,0.133-7.685-0.169-11.515c-0.277-3.515-0.43-7.294-1.976-10.48
						c-2.726-5.619-6.794-10.922-12.573-13.619c-4.211-1.965-8.988-2.393-13.631-2.186c-5.864,0.261-11.802,1.54-16.789,4.635
						c-5.801,3.6-9.388,8.921-12.672,14.724c-1.642,2.903-1.499,7.289-1.459,10.549c0.048,3.868,0.481,7.716,0.815,11.566
						C587.044,256.682,587.186,258.53,587.255,260.38z"/>
					<g>
						<path style="fill:#E0764C;" d="M598.625,268.511c-0.341,0.758-0.687,1.528-0.802,2.352c-0.115,0.823,0.029,1.721,0.572,2.349
							c0.705,0.815,1.954,1,2.977,0.659c1.023-0.341,1.845-1.117,2.504-1.97c2.744-3.551,3.056-8.638,2.568-12.94
							c-0.076-0.668-0.188-1.359-0.569-1.913c-0.381-0.554-1.106-0.926-1.739-0.7c-0.77,0.275-1.025,1.212-1.215,2.008
							C602.064,261.949,600.132,265.166,598.625,268.511z"/>
						<g>
							<path d="M613.188,258.147c0.04,0.775,0.259,1.584,0.951,2.181c0.692,0.597,1.961,0.903,2.905,0.521
								c0.793-0.321,1.142-1.004,1.3-1.645c0.326-1.318,0.101-2.704-0.639-3.934c-0.516-0.859-2.077-1.937-3.279-0.971
								C613.292,255.21,613.129,257.004,613.188,258.147z"/>
							<path style="fill:none;stroke:#000000;stroke-linecap:round;stroke-linejoin:round;stroke-miterlimit:10;" d="
								M609.352,250.634c0.906-2.849,3.772-4.953,6.762-4.965c2.99-0.011,5.871,2.071,6.799,4.914"/>
						</g>
						<g>
							<path d="M591.646,258.561c0.04,0.775,0.259,1.584,0.951,2.181c0.692,0.597,1.961,0.903,2.905,0.521
								c0.793-0.321,1.142-1.004,1.3-1.645c0.326-1.318,0.101-2.704-0.639-3.934c-0.517-0.859-2.077-1.937-3.279-0.971
								C591.75,255.623,591.587,257.418,591.646,258.561z"/>
							<path style="fill:none;stroke:#000000;stroke-linecap:round;stroke-linejoin:round;stroke-miterlimit:10;" d="
								M599.101,246.233c-1.404-1.599-3.86-2.026-5.867-1.32c-2.007,0.706-3.569,2.385-4.495,4.301"/>
						</g>
						<g>
							<path d="M608.974,277.551c-0.703,0.127-1.411,0.228-2.12,0.302c-3.316,0.346-6.664,0.172-9.991-0.054
								c0.089,2.406-0.375,4.757-0.375,7.138c0.644,0.277,1.311,0.492,1.987,0.676C601.152,282.033,604.83,279.22,608.974,277.551z"
								/>
							<path style="fill:#F2594B;" d="M617.157,274.742c-0.222-0.213-0.585-0.05-0.846,0.113c-1.584,0.986-3.317,1.699-5.117,2.196
								c-0.73,0.202-1.472,0.365-2.219,0.5c-4.144,1.669-7.822,4.482-10.498,8.062c0.22,0.06,0.438,0.13,0.661,0.181
								c7.576,1.704,16.401-2.408,18.108-10.41C617.292,275.163,617.32,274.899,617.157,274.742z"/>
						</g>
					</g>
				</g>
				<path d="M606.378,237.308c7.272-2.173,13.948-6.063,19.928-10.737c-1.533,11.715,2.529,24.039,10.728,32.546
					c1.666,1.728,3.792,3.41,6.181,3.179c2.908-0.282,4.765-3.232,5.704-5.998c3.158-9.304,1.024-19.686-3.16-28.576
					c-2.085-4.431-4.706-8.677-8.26-12.045c-3.555-3.368-8.115-5.817-12.993-6.244c-4.274-0.374-8.523,0.793-12.603,2.121
					c-6.219,2.024-12.409,4.507-17.517,8.591c-4.168,3.332-7.796,8.006-9.022,13.287c-1.466,6.315,5.732,5.853,10.205,5.69
					C599.23,238.989,602.869,238.357,606.378,237.308z"/>
				<g>
					<path style="fill:#F7B385;" d="M642.04,252.572c0.795-1.096,1.818-2.157,3.149-2.406c1.721-0.322,3.388,0.819,4.52,2.155
						c2.677,3.16,3.508,7.748,2.227,11.687c-1.28,3.939-4.586,7.13-8.531,8.393c-1.181,0.378-2.54,0.574-3.606-0.059
						c-1.168-0.694-1.614-2.158-1.768-3.508c-0.166-1.456-0.151-2.932,0.306-4.329c0.4-1.22,0.338-2.412,0.49-3.681
						C639.183,257.862,640.287,254.988,642.04,252.572z"/>
					<g>
						<path style="fill:none;stroke:#000000;stroke-linecap:round;stroke-linejoin:round;stroke-miterlimit:10;" d="
							M646.414,255.474c-3.091,3.379-4.448,8.268-3.54,12.757"/>
						<path style="fill:none;stroke:#000000;stroke-linecap:round;stroke-linejoin:round;stroke-miterlimit:10;" d="M643.44,260.247
							c1.082,0.941,2.433,1.569,3.85,1.792"/>
					</g>
				</g>
			</g>
			<g>
				<g>
					<path style="fill:#F7B385;" d="M649.483,394.209c-0.705,1.202-1.433,2.391-2.183,3.566c-2.647,4.146-6.194,8.484-11.097,8.891
						c-3.732,0.31-7.383-1.928-9.411-5.076c-2.027-3.148-2.602-7.057-2.315-10.79c0.287-3.733,1.376-7.353,2.458-10.937
						c3.558-11.788,7.115-23.575,10.673-35.363c2.522-8.356,6.132-20.054,13.8-25.263c4.473-3.038,8.603-0.109,11.368,3.722
						c0.123,0.17,0.244,0.342,0.362,0.515c3.204,4.671,3.316,11.896,2.977,17.293c-0.444,7.063-2.188,13.937-4.043,20.738
						c-0.786,2.881-0.89,5.678-1.828,8.563c-1.055,3.241-2.232,6.443-3.539,9.591C654.627,384.663,652.224,389.535,649.483,394.209z
						"/>
					<path style="fill:#E0764C;" d="M637.952,386.01c0.116,0.215,0.258,0.45,0.495,0.508c0.267,0.065,0.54-0.142,0.645-0.396
						c0.105-0.254,0.083-0.541,0.058-0.814c-0.71-7.535-3.421-14.872-7.781-21.058c-0.403,1.57-0.814,3.138-1.232,4.704
						c-0.159,0.593-0.539,1.374-0.386,1.986c0.142,0.568,0.708,1.235,0.989,1.754c1.551,2.864,3.102,5.728,4.653,8.592
						C636.245,382.859,637.109,384.429,637.952,386.01z"/>
				</g>
				<path style="fill:#6598B8;" d="M671.066,345.594c0.281,9.657-1.796,19.21-3.862,28.648c-13.004,0.069-26.012-3.139-37.492-9.246
					c-0.836-0.445-1.719-0.963-2.097-1.832c-0.444-1.022-0.052-2.197,0.348-3.237c2.959-7.703,5.577-15.357,8.914-22.933
					c3.544-8.045,7.354-15.972,11.423-23.764c0.194-0.372,0.41-0.765,0.782-0.961c0.614-0.323,1.352,0.025,1.956,0.366
					c5.03,2.848,10.21,5.826,13.667,10.459C669.303,329.255,670.847,338.065,671.066,345.594z"/>
				<g>
					<path style="fill:#F7B385;" d="M593.932,358.006c-1.053-1.691-1.618-3.051-2.183-4.951c-0.647-2.179-2-4.085-1.76-6.47
						c0.328-3.266,4.116-5.004,7.015-4.107c1.552,0.48,2.829,1.571,4.058,2.634c12.78,11.057,25.587,22.139,37.13,34.482
						c3.027,3.237,6.075,6.769,6.993,11.104c1.026,4.842-1.034,10.199-5.04,13.107c-2.943,2.136-6.873,3.189-10.218,1.521
						c-3.085-1.539-5.406-4.291-7.525-6.931c-0.519-0.647-1.036-1.296-1.55-1.947c-6.428-8.137-12.465-16.577-18.252-25.18
						c-2.895-4.304-5.727-8.649-8.516-13.022C594.031,358.165,593.981,358.086,593.932,358.006z"/>
					<path style="fill:#E0764C;" d="M636.875,396.789c2.079,0.4,3.832,2.148,4.239,4.226c-1.31-1.323-3.197-2.053-5.057-1.957
						c-1.949,0.1-3.501,1.068-4.821,2.427C630.688,398.277,633.94,396.224,636.875,396.789z"/>
				</g>
				<g>
					<g>
						<path style="fill:#D9E5ED;" d="M580.553,312.876c0.183-1.165,0.381-2.327,0.594-3.487c6.373,3.165,13.3,5.213,20.37,6.021
							c-0.488-0.056-2.698,12.857-2.87,14.073c-0.662,4.683-0.826,9.278-0.141,13.935c0.064,0.435-8.085,0.272-8.808,0.194
							c-3.005-0.325-5.968-1.045-8.784-2.145c-1.19-0.465-2.463-0.634-2.385-2.012c0.083-1.471,0.383-3.002,0.448-4.517
							c0.175-4.107,0.051-8.135,0.394-12.231C579.646,319.418,580.041,316.138,580.553,312.876z"/>
						<path style="fill:#F2F2F2;" d="M578.529,312.556c5.953,4.103,13.126,6.41,20.355,6.546c-2.396,9.281-2.434,19.161-0.11,28.461
							c-0.017-0.07-3.762-0.581-4.123-0.672c-1.383-0.351-2.735-0.823-4.038-1.405c-2.636-1.177-5.073-2.805-7.161-4.799
							c-1.568-1.497-3.524-3.231-3.863-5.459c-0.526-3.459-0.617-7.054-0.792-10.545C578.595,320.644,578.505,316.6,578.529,312.556
							z"/>
					</g>
					<g>
						<path style="fill:#F7B385;" d="M602.923,341.251c-0.036-1.026-0.164-2.035-0.397-3.011c-0.747-3.133-2.72-5.954-2.94-9.168
							c-0.049-0.713-0.01-1.438-0.185-2.131c-0.176-0.692-0.625-1.372-1.31-1.573c-0.562-0.164-1.184,0.028-1.648,0.385
							c-0.464,0.357-0.793,0.86-1.073,1.374c-1.412,2.597-1.379,5.104-1.085,7.927c0.055,0.53,0.038,1.198-0.444,1.426
							c-0.435,0.205-0.926-0.111-1.302-0.41c-1.082-0.861-2.163-1.722-3.245-2.583c-0.86-0.685-1.622-1.551-2.507-2.168
							c-2.203-1.536-4.469-2.99-6.701-4.483c-0.588-0.393-1.296-0.804-1.96-0.562c-0.589,0.214-0.891,0.862-1.05,1.468
							c-0.378,1.438-0.288,2.996,0.255,4.381c-0.678-0.06-1.311,0.423-1.637,1.021c-0.326,0.598-0.407,1.294-0.483,1.971
							c-0.074,0.66-0.148,1.327-0.058,1.985c0.09,0.658,0.363,1.315,0.874,1.738c-1.244,0.581-1.725,1.856-1.78,3.146
							c-0.026,0.612,0.168,1.138,0.522,1.648c0.174,0.25,1.021,1.289,1.393,1.169c-2.213,0.71-2.431,3.806-1.002,5.335
							c0.588,0.629,1.353,1.058,2.105,1.477c6.244,3.475,12.529,6.969,19.289,9.284c0-2.638,1.586-4.969,2.944-7.231
							C601.615,350.143,603.076,345.555,602.923,341.251z"/>
						<g>
							<path style="fill:#E0764C;" d="M586.712,339.77c1.46,0.98,2.974,1.915,4.641,2.474c0.107-0.476-0.305-0.896-0.678-1.211
								c-0.987-0.832-1.974-1.665-2.99-2.462c-1.64-1.287-3.355-2.479-5.132-3.57c-1.684-1.034-3.523-2.241-5.393-2.893
								c1.126,1.436,2.901,2.652,4.319,3.8C583.166,337.273,584.912,338.562,586.712,339.77z"/>
							<path style="fill:#E0764C;" d="M585.046,345.622c0.888,0.475,1.829,0.957,2.836,0.937c0.033-0.763-0.738-1.281-1.412-1.639
								c-2.308-1.226-4.617-2.452-6.925-3.678c-1.042-0.553-2.005-1.255-3.024-1.817c-0.052,0.605,1.078,1.341,1.493,1.695
								c0.717,0.613,1.475,1.177,2.257,1.704C581.801,343.859,583.42,344.753,585.046,345.622z"/>
							<path style="fill:#E0764C;" d="M586.875,351.748c0.022-0.398-0.207-0.776-0.511-1.033c-0.304-0.258-0.676-0.417-1.041-0.577
								c-1.68-0.737-3.318-1.571-4.902-2.497c-0.808-0.472-1.603-0.969-2.382-1.488c-0.572-0.381-1.213-1.021-1.848-1.246
								c0.346,1.157,2.067,2.204,2.973,2.877c1.489,1.105,3.093,2.054,4.778,2.826C584.897,351.046,585.876,351.427,586.875,351.748
								z"/>
						</g>
					</g>
				</g>
			</g>
		</g>
		<g>
			<g>
				<path style="fill:#3F7EA6;" d="M359.114,418.253c0.27-26.76-1.144-30.885-4.233-57.467c-1.944-16.735-4.556-33.451-4.635-50.299
					c-0.014-2.939-0.361-6.708,1.26-9.227c1.373-2.134,4.558-4.213,6.52-5.838c4.833-4.003,10.14-7.429,15.762-10.215
					c11.243-5.571,23.773-8.587,36.332-8.516c12.048,0.068,23.961,2.843,35.295,6.931c7.249,2.614,14.514,5.916,19.755,11.565
					c4.479,4.828,8.297,12.051,9.426,18.584c0.436,2.526-0.057,5.03,0.458,7.573c0.835,4.119,2.076,8.193,3.075,12.278
					c4.02,16.437,7.645,32.971,10.87,49.582c2.064,10.631,3.964,21.295,5.7,31.984"/>
				<path style="fill:#6598B8;" d="M446.942,366.539c-27.993,4.485-56.577,5.67-84.805,2.84c-8.955,0.447-6.264-10.926-7.711-16.777
					c34.919,7.689,76.155,3.449,106.776-14.928c1.859,7.844,3.717,15.689,5.576,23.533
					C460.568,364.148,453.726,365.453,446.942,366.539z"/>
				<path style="fill:#6598B8;" d="M384.76,286.828c1.199,28.139,48.908,17.507,48.972-5.337
					C426.791,268.351,384.265,270.342,384.76,286.828z"/>
				<path style="fill:#2F5F7D;" d="M453.579,365.262c-7.723,3.748-15.637,7.101-23.7,10.045c-8.043,2.936-16.489,4.74-24.502,7.62
					c0.308,1.289,1.494,2.369,2.078,3.58c0.809,1.676,1.287,3.631,1.734,5.43c0.916,3.688,1.348,7.497,1.271,11.297
					c-0.052,2.548-0.196,5.461,1.643,7.225c1.338,1.283,3.333,1.532,5.179,1.703c15.954,1.479,31.987,2.104,48.007,1.876
					c6.408-0.091,12.814-0.319,19.213-0.683c3.199-0.182,6.397-0.398,9.591-0.648c1.465-0.115,2.97-0.369,4.437-0.246
					c0.491,0.041,1.933,0.634,2.363,0.248c0.927-0.832-1.379-6.445-1.723-7.64c-0.858-2.984-1.759-5.956-2.703-8.915
					c-1.888-5.917-3.949-11.778-6.178-17.575c-3.941-10.249-9.788-19.533-12.485-30.296c-3.196-12.752-7.052-25.499-13.594-36.98
					c-1.461-2.564-3.173-5.171-5.799-6.516c-3.041-1.558-6.803-0.838-7.426,2.545c-0.822,4.468-1.045,9.217-1.293,13.753
					c-0.518,9.472-0.171,18.992,1.034,28.402C451.404,354.789,452.355,360.057,453.579,365.262z"/>
			</g>
			<g>
				<path style="fill:#F7B385;" d="M390.024,236.751c-0.737,10.984-1.296,21.981-1.678,32.983
					c-0.173,4.999-0.149,10.005-0.221,14.988c-0.062,4.318,0.394,7.922,4.372,10.555c3.549,2.35,8.086,2.685,12.313,2.185
					c6.598-0.781,12.906-3.419,18.394-7.164c3.63-2.477,7.299-5.978,7.711-10.616c0.236-2.653-0.488-5.615-0.8-8.277
					c-0.35-2.987-0.7-5.974-1.05-8.961c-1.4-11.948-2.8-23.897-4.201-35.845c-0.364-3.107-0.728-6.213-1.092-9.32
					c-9.806,6.509-21.034,10.864-32.664,12.67c-0.431,4.938-0.862,9.876-1.293,14.814"/>
				<path style="fill:#E0764C;" d="M388.714,278.926c0.111,1.551,0.358,3.234,1.486,4.305c0.915,0.868,2.266,1.156,3.52,1.026
					c1.254-0.131,2.438-0.634,3.577-1.174c12.227-5.798,21.85-16.854,25.906-29.765c1.184-3.77,1.915-7.777,1.275-11.676
					c-0.143-0.874-0.431-1.84-1.216-2.252c-0.567-0.298-1.25-0.222-1.883-0.124c-7.315,1.13-14.245,4.384-19.926,9.107
					c-4.779,3.972-10.235,9.955-11.732,16.174C388.606,269.176,388.377,274.192,388.714,278.926z"/>
			</g>
			<g>
				<path style="fill:#F7B385;" d="M362.399,228.545c0.048,6.612,0.338,13.222,0.87,19.813c0.308,3.825,0.735,7.767,2.603,11.12
					c3.635,6.527,11.78,9.144,19.246,9.406c12.159,0.428,24.421-4.036,33.46-12.18c17.113-15.418,19.092-39.68,10.769-60.187
					c-3.104-7.647-8.08-15.014-15.559-18.504c-4.737-2.211-10.112-2.692-15.336-2.459c-6.597,0.294-13.277,1.732-18.889,5.215
					c-8.59,5.331-15.704,15.816-16.446,25.943C362.585,213.975,362.345,221.262,362.399,228.545z"/>
				<path d="M397.626,212.426c5.02,0.137-0.153-7.686-0.828-10.253c6.362,5.085,16.136,5.058,22.45-0.1
					c1.642,3.066,0.91,6.746,1.138,10.184c0.277,4.167,0.904,8.312,1.877,12.374c0.271,1.133,0.609,2.328,1.474,3.109
					c1.585,1.43,4.193,0.787,5.846-0.564c10.003-8.176,10.243-23.738,8.471-35.467c-0.269-1.782-0.613-3.556-1.073-5.299
					c2.377,0.371,4.84,0.174,7.128-0.569c-0.902-4.06-4.707-7.29-8.86-7.519c1.264-7.339-2.262-15.277-8.554-19.26
					c-1.389,3.9-1.979,8.082-1.724,12.213c-7.687-12.068-47.766-3.954-62.674-6.605c-15.459-2.581-10.718,19.769-0.108,19.891
					c-6.513,9.645-6.03,23.471,1.139,32.638c0.032-8.686,3.245-17.325,8.896-23.921
					C377.903,202.755,386.126,211.033,397.626,212.426z"/>
				<g>
					<path style="fill:#E0764C;" d="M377.793,237.598c-0.384,0.852-0.772,1.719-0.902,2.646c-0.13,0.926,0.032,1.936,0.644,2.643
						c0.793,0.917,2.198,1.124,3.349,0.741c1.15-0.383,2.076-1.257,2.817-2.216c3.087-3.995,3.438-9.718,2.889-14.558
						c-0.085-0.752-0.212-1.529-0.641-2.152c-0.429-0.623-1.245-1.042-1.957-0.788c-0.867,0.31-1.153,1.364-1.366,2.259
						C381.662,230.216,379.488,233.835,377.793,237.598z"/>
					<g>
						<path d="M398.794,225.938c0.045,0.872,0.292,1.782,1.07,2.453c0.778,0.672,2.206,1.016,3.268,0.586
							c0.892-0.361,1.285-1.129,1.463-1.851c0.366-1.483,0.113-3.042-0.719-4.426c-0.581-0.966-2.337-2.179-3.689-1.092
							C398.912,222.633,398.728,224.652,398.794,225.938z"/>
						<path style="fill:none;stroke:#000000;stroke-linecap:round;stroke-linejoin:round;stroke-miterlimit:10;" d="
							M389.861,217.486c1.019-3.206,4.244-5.573,7.607-5.586c3.364-0.013,6.606,2.331,7.649,5.528"/>
					</g>
					<g>
						<path d="M373.873,226.404c0.045,0.872,0.292,1.782,1.07,2.453c0.778,0.672,2.206,1.016,3.268,0.586
							c0.892-0.361,1.285-1.129,1.463-1.851c0.367-1.483,0.113-3.042-0.719-4.426c-0.581-0.966-2.337-2.179-3.689-1.092
							C373.99,223.099,373.807,225.117,373.873,226.404z"/>
						<path style="fill:none;stroke:#000000;stroke-linecap:round;stroke-linejoin:round;stroke-miterlimit:10;" d="
							M378.328,212.535c-1.58-1.798-4.342-2.279-6.601-1.486c-2.258,0.794-4.015,2.683-5.057,4.838"/>
					</g>
					<g>
						<path d="M389.437,247.769c-0.791,0.142-1.587,0.256-2.385,0.339c-3.731,0.389-7.497,0.194-11.24-0.061
							c0.1,2.707-0.421,5.352-0.421,8.031c0.724,0.312,1.474,0.554,2.235,0.761C380.637,252.812,384.774,249.647,389.437,247.769z"
							/>
						<path style="fill:#F2594B;" d="M398.643,244.609c-0.25-0.24-0.658-0.056-0.952,0.127c-1.782,1.11-3.732,1.911-5.757,2.47
							c-0.822,0.227-1.656,0.411-2.496,0.562c-4.662,1.878-8.8,5.043-11.811,9.07c0.248,0.067,0.492,0.146,0.743,0.203
							c8.524,1.918,18.452-2.709,20.372-11.711C398.794,245.082,398.826,244.785,398.643,244.609z"/>
					</g>
				</g>
				<g>
					<path style="fill:#F7B385;" d="M436.838,241.831c-2.396,1.093-6.653,2.136-8.257-0.709c-0.478-0.849-0.66-1.829-0.792-2.795
						c-0.68-4.981-0.182-10.115,1.409-14.882c1.26-3.775,3.154-9.035,7.918-9.296c2.037-0.112,4.005,1.009,5.297,2.587
						c1.292,1.578,1.986,3.565,2.414,5.559c0.798,3.719,0.73,7.676-0.586,11.245C442.927,237.108,440.298,240.252,436.838,241.831z"
						/>
					<g>
						<path style="fill:none;stroke:#000000;stroke-linecap:round;stroke-linejoin:round;stroke-miterlimit:10;" d="
							M436.296,221.363c-3.152,3.831-4.096,9.361-2.395,14.021"/>
						<path style="fill:none;stroke:#000000;stroke-linecap:round;stroke-linejoin:round;stroke-miterlimit:10;" d="
							M433.351,228.247c1.348,0.411,2.785,0.53,4.182,0.347"/>
					</g>
				</g>
			</g>
			<g>
				<g>
					<path style="fill:#3F7EA6;" d="M322.999,404.448c7.839-5.542,37.566-18.774,34.065-28.787
						c-2.042-24.514-6.547-48.997-6.214-73.637c-13.121,27.139-29.489,52.904-43.608,79.643
						C296.599,396.014,303.859,415.292,322.999,404.448z"/>
					<path style="fill:#2F5F7D;" d="M341.981,389.813c0.067,1.004,0.315,2.232,1.278,2.522c0.75,0.226,1.508-0.269,2.132-0.742
						c3.756-2.845,7.396-5.843,10.908-8.984c0.691-0.618,1.405-1.282,1.7-2.161c0.259-0.771,0.162-1.611,0.063-2.418
						c-1.515-12.285-3.031-24.57-4.546-36.856c-0.363-2.941-0.129-7.379-1.358-10.015c-1.3,0.505-1.82,3.319-2.27,4.528
						c-0.698,1.878-1.353,3.773-1.963,5.681c-1.221,3.817-2.265,7.691-3.131,11.604c-1.719,7.772-2.732,15.701-3.015,23.656
						C341.623,381.041,341.981,385.412,341.981,389.813z"/>
					<path style="fill:#2F5F7D;" d="M331.063,368.801c0.12,0.408,0.496,1.766,1.042,1.918c1.062,0.296,1.198-1.179,1.173-1.869
						c-0.396-10.796-0.792-21.591-1.187-32.386c-1.716,3.227-3.432,6.453-5.148,9.68c-0.486,0.914-0.98,1.853-1.127,2.878
						c-0.229,1.602,0.414,3.119,0.846,4.626c0.433,1.51,0.723,3.033,1.176,4.545C328.897,361.732,330.023,365.254,331.063,368.801z"
						/>
				</g>
				<g>
					<path style="fill:#3F7EA6;" d="M295.063,307.126c5.194-1.153,10.307-2.669,15.289-4.535
						c4.078,13.258,8.157,26.516,12.235,39.774c3.845,12.5,9.222,25.259,10.079,38.343c0.437,6.671-0.674,13.638-4.366,19.211
						c-3.692,5.573-10.271,9.479-16.924,8.823c-8.898-0.878-9.313-8.459-11.145-15.64c-2.152-8.437-4.033-16.943-5.638-25.501
						c-3.21-17.116-5.321-34.438-6.309-51.824c-0.138-2.434-0.254-4.869-0.349-7.306
						C290.326,308.099,292.703,307.65,295.063,307.126z"/>
					<path style="fill:#6598B8;" d="M286.759,316.993c0.022,0.573,0.059,1.19,0.418,1.638c0.506,0.632,1.432,0.684,2.241,0.679
						c4.591-0.028,9.212-0.182,13.7-1.154c4.487-0.972,8.868-2.808,12.294-5.864c-1.639-4.139-3.278-8.278-4.917-12.417
						c-0.332-0.838-12.309,3.518-13.448,3.981c-2.207,0.898-4.369,1.906-6.474,3.021c-1.183,0.626-3.236,1.305-3.845,2.616
						C285.836,311.41,286.679,314.926,286.759,316.993z"/>
					<path style="fill:#2F5F7D;" d="M314.839,399.516c1.605,0.642,2.885,1.897,4.007,3.212c0.233,0.273,0.47,0.558,0.787,0.726
						c0.317,0.169,0.741,0.193,1.013-0.042c0.238-0.205,0.302-0.544,0.319-0.858c0.129-2.375-1.743-4.591-4.037-5.224
						c-2.035-0.561-6.335,0.083-7.216,2.382c0.586,0.132,1.248-0.301,1.852-0.44C312.662,399.021,313.787,399.095,314.839,399.516z"
						/>
				</g>
				<g>
					<g>
						<path style="fill:#F7B385;" d="M282.081,302.332c1.219,2.766,2.842,5.434,5.212,7.31c2.37,1.876,5.588,2.858,8.492,2.021
							c0.945-0.272,1.837-0.726,2.803-0.909c1.421-0.27,2.894,0.107,4.277-0.347c1.201-0.395,2.525-0.388,3.682-0.946
							c1.654-0.798,2.682-2.471,3.535-4.097c0.853-1.626,1.674-3.359,3.133-4.473c1.342-1.025,3.155-1.466,4.169-2.816
							c0.747-0.996,0.922-2.321,1.612-3.357c1.46-2.193,4.616-2.391,6.706-3.994c0.801-0.614,1.473-1.678,1.048-2.594
							c-0.402-0.866-1.524-1.078-2.478-1.103c-3.628-0.092-7.277,0.943-10.318,2.924c-0.854,0.556-1.787,1.217-2.791,1.042
							c-0.896-0.156-1.545-0.944-1.967-1.75c-0.422-0.806-0.714-1.697-1.308-2.386c-0.794-0.92-2.038-1.353-3.252-1.42
							c-1.265-0.069-2.372,0.344-3.589,0.498c-1.062,0.135-2.319-0.367-3.381-0.544c-2.484-0.415-5.003-0.624-7.522-0.624
							c-2.943,0-6.246,0.082-9.079,0.96c-2.622,0.812-2.05,3.609-1.826,5.82C279.618,295.26,280.575,298.915,282.081,302.332z"/>
						<path style="fill:#E0764C;" d="M282.151,291.772c0.571,0.881,1.062,1.842,1.69,2.679c0.613,0.817,0.892,1.976,1.266,2.928
							c0.395,1.006,0.839,2.074,1.74,2.671c1.277,0.846,2.988,0.445,4.41-0.126c0.275,0.642,0.967,0.998,1.636,1.199
							c0.669,0.202,1.383,0.31,1.972,0.686c1.078,0.688,1.544,2.148,2.716,2.66c1.054,0.46,2.32-0.051,3.118-0.879
							c0.935-0.969,1.283-2.142,1.938-3.274c0.71-1.226,1.689-2.28,2.746-3.215c1.078-0.953,2.251-1.784,3.372-2.683
							c0.918-0.736,2.011-0.932,2.605-2.084c0.205-0.397,0.329-0.848,0.274-1.291c-0.129-1.047-1.163-1.191-2.018-1.42
							c-1.402-0.376-2.696-1.147-3.695-2.2c-1.073-1.131-1.845-2.606-3.204-3.37c-1.559-0.877-3.512-0.596-5.208-0.026
							c-2.316,0.779-4.448,2.04-6.767,2.811c-2.319,0.771-5,0.995-7.102-0.252c-0.775-0.46-1.836-1.145-2.785-0.905
							c-1.826,0.462-0.274,3.69,0.273,4.527C281.469,290.729,281.812,291.249,282.151,291.772z"/>
					</g>
					<g>
						<g>
							<path d="M324.175,279.767c-14.695,1.681-35.424,4.961-49.973,7.627c-1.244,0.228-2.532,0.478-3.56,1.216
								c-1.027,0.738-1.715,2.11-1.264,3.292c0.386,1.01,1.451,1.583,2.48,1.917c3.411,1.105,7.11,0.513,10.644-0.089
								c15.479-2.637,30.958-5.274,46.437-7.911L324.175,279.767z"/>
							<path d="M329.601,275.066c3.094-0.506,6.27-0.501,9.358,0.061c1.689,0.307,3.379,0.785,4.812,1.73
								c1.152,0.76,2.558,2.152,2.742,3.605c0.191,1.506-0.891,3.132-1.846,4.197c-2.267,2.525-6.357,3.813-9.576,4.392
								c-3.439,0.618-7.029,0.564-10.45-0.143c-2.566-0.53-5.447-1.428-7.357-3.322c-0.657-0.652-1.207-1.466-1.303-2.407
								c-0.19-1.849,0.924-2.686,2.34-3.646C321.693,277.246,325.578,275.724,329.601,275.066z"/>
						</g>
						<g>
							<path style="fill:#F2594B;" d="M334.413,276.474c1.585-0.097,3.186-0.129,4.75,0.146c1.564,0.275,3.1,0.874,4.298,1.916
								c0.43,0.374,0.829,0.833,0.929,1.394c0.189,1.063-0.729,1.978-1.6,2.616c-1.637,1.199-3.42,2.197-5.297,2.967
								c-4.853,1.99-10.428,2.388-15.379,0.657c-0.745-0.26-1.487-0.575-2.089-1.085c-0.602-0.51-1.053-1.246-1.064-2.035
								c-0.027-1.918,3.167-3.42,4.613-4.113c2.143-1.027,4.461-1.648,6.801-2.026C331.712,276.694,333.061,276.557,334.413,276.474
								z"/>
							<g>
								<path style="fill:#F2A10A;" d="M323.485,281.182c-0.037,0.228-0.036,0.491,0.128,0.654c0.13,0.129,0.327,0.158,0.51,0.159
									c0.407,0.003,0.814-0.099,1.171-0.295c0.262-0.143,0.501-0.341,0.652-0.599c0.151-0.258,0.207-0.58,0.107-0.861
									C325.531,278.757,323.635,280.263,323.485,281.182z"/>
								<path style="fill:#F2A10A;" d="M329.224,279.231c0.161,0.172,0.412,0.225,0.648,0.236c0.487,0.022,0.979-0.102,1.397-0.352
									c0.15-0.09,0.298-0.203,0.365-0.366c0.095-0.23-0.007-0.509-0.199-0.667C330.802,277.561,328.299,278.239,329.224,279.231z"
									/>
								<path style="fill:#F2A10A;" d="M327.958,282.067c-0.146,0.279-0.213,0.614-0.109,0.911c0.08,0.229,0.301,0.436,0.54,0.396
									c0.121-0.02,0.224-0.099,0.317-0.18c0.35-0.306,0.637-0.684,0.836-1.104c0.073-0.154,0.135-0.317,0.143-0.488
									s-0.048-0.35-0.177-0.461c-0.134-0.115-0.329-0.14-0.5-0.097C328.559,281.158,328.161,281.679,327.958,282.067z"/>
								<path style="fill:#F2A10A;" d="M324.617,285.056c0.185,0.027,0.392,0.02,0.534-0.102c0.165-0.141,0.189-0.391,0.137-0.602
									c-0.077-0.312-0.292-0.581-0.561-0.757c-0.373-0.243-1.679-0.589-1.598,0.239
									C323.193,284.479,324.051,284.974,324.617,285.056z"/>
								<path style="fill:#F2A10A;" d="M331.705,284.555c-0.214,0.117-0.441,0.299-0.429,0.542c0.009,0.191,0.173,0.346,0.354,0.405
									c0.182,0.059,0.378,0.042,0.568,0.022c0.549-0.059,1.113-0.145,1.584-0.434c0.138-0.085,0.269-0.189,0.356-0.327
									c0.311-0.493-0.224-0.966-0.708-0.861C332.861,284.025,332.214,284.277,331.705,284.555z"/>
								<path style="fill:#F2A10A;" d="M333.116,280.872c-0.056,0.072-0.111,0.152-0.114,0.244c-0.007,0.2,0.221,0.315,0.413,0.369
									c0.291,0.082,0.589,0.139,0.89,0.172c0.183,0.02,0.379,0.028,0.54-0.061c0.164-0.091,0.26-0.267,0.348-0.433
									c0.099-0.189,0.202-0.395,0.166-0.605c-0.078-0.455-0.642-0.718-1.038-0.58C333.851,280.141,333.42,280.485,333.116,280.872
									z"/>
								<path style="fill:#F2A10A;" d="M338.226,279.631c0.184,0.137,0.408,0.252,0.634,0.213c0.253-0.043,0.444-0.277,0.492-0.529
									c0.048-0.252-0.027-0.513-0.148-0.739c-0.244-0.455-1.21-1.332-1.752-0.822C336.93,278.246,337.834,279.338,338.226,279.631
									z"/>
								<path style="fill:#F2A10A;" d="M338.203,281.856c-0.288,0.247-0.456,0.628-0.444,1.008c0.003,0.099,0.02,0.203,0.084,0.28
									c0.069,0.084,0.181,0.119,0.289,0.137c0.358,0.059,0.738-0.04,1.022-0.265c0.284-0.225,0.467-0.573,0.491-0.935
									C339.698,281.274,338.565,281.545,338.203,281.856z"/>
							</g>
						</g>
					</g>
					<g>
						<path style="fill:#F7B385;" d="M279.646,280.126c0.298-0.54,0.674-1.023,1.14-1.353c1.077-0.764,2.708-0.97,3.889-0.34
							c0.566-1.549,2.004-2.745,3.629-3.019c1.626-0.275,3.376,0.383,4.42,1.66c0.638-1.528,2.21-2.619,3.864-2.683
							c1.655-0.064,3.306,0.902,4.06,2.376c-0.135-0.932,0.803-1.748,1.742-1.817c0.939-0.069,1.831,0.393,2.628,0.895
							c2.399,1.508,4.516,3.531,5.868,6.022c1.352,2.49,1.894,5.468,1.213,8.219c-0.257,1.037-0.723,2.085-1.598,2.698
							c-0.875,0.613-2.235,0.617-2.9-0.22c-0.692,1.576-2.29,2.714-4.005,2.852c-1.715,0.138-3.475-0.729-4.41-2.174
							c-0.435,1.419-1.406,2.762-2.815,3.228c-1.409,0.466-3.219-0.247-3.6-1.681c-0.001,1.185-0.633,2.352-1.625,3
							c-0.992,0.649-2.314,0.76-3.4,0.286c-1.388-0.606-2.249-2.015-2.796-3.426c-0.548-1.412-0.879-2.92-1.649-4.224
							c-0.529-0.897-1.255-1.676-2.051-2.342c-0.847-0.708-1.733-1.173-2.719-1.683c0.009-1.407,0.02-2.828,0.342-4.198
							C279.029,281.544,279.278,280.792,279.646,280.126z"/>
						<g>
							<path style="fill:#E0764C;" d="M302.59,278.394c1.59,2.017,2.66,4.404,3.409,6.86c0.749,2.457,1.192,4.995,1.632,7.525
								c0.607-2.34,0.309-4.848-0.494-7.128c-0.803-2.28-2.089-4.358-3.478-6.337c-0.572-0.816-1.403-2.13-2.405-2.443
								c-0.035,0.286,0.356,0.47,0.54,0.64C302.086,277.78,302.345,278.083,302.59,278.394z"/>
							<path style="fill:#E0764C;" d="M299.114,293.466c0.386-1.999-0.003-4.081-0.713-5.988c-0.71-1.908-1.731-3.681-2.664-5.491
								c-0.868-1.685-1.648-3.641-2.945-5.053c0.255,0.892,1.009,1.779,1.442,2.612c0.552,1.061,1.048,2.151,1.5,3.258
								c0.9,2.202,1.627,4.47,2.29,6.753C298.402,290.856,298.758,292.161,299.114,293.466z"/>
							<path style="fill:#E0764C;" d="M292.566,295.267c0.208-0.662,0.145-1.384-0.043-2.052c-0.188-0.668-0.494-1.295-0.777-1.929
								c-1.017-2.281-1.742-4.683-2.743-6.972c-0.989-2.272-2.308-4.491-4.267-6.059c1.61,1.613,2.682,3.995,3.652,6.051
								c1.07,2.269,1.972,4.614,2.81,6.977C291.668,292.606,292.118,293.936,292.566,295.267z"/>
						</g>
					</g>
				</g>
			</g>
			<g>
				<path d="M342.312,374.701c-1.757,0.695-2.886,2.455-2.798,4.343c0.25,5.374,1.73,11.389,4.868,15.471
					c3.415,4.443,9.153,8.024,14.334,10.008c5.042,1.931,10.452,2.774,15.846,2.971c6.446,0.235,12.996-0.456,19.019-2.773
					c6.203-2.386,13.839-9.378,16.967-15.243c1.655-3.103,2.16-5.963,1.51-13.031c-2.631-3.121-6.821-4.065-10.761-5.131
					C382.307,366.177,360.683,367.431,342.312,374.701z"/>
				<g>
					<path style="fill:#F2594B;" d="M407.498,377.821c0,2.595-14.145,4.699-31.594,4.699c-17.449,0-31.594-2.104-31.594-4.699
						c0-2.595,14.145-4.699,31.594-4.699C393.353,373.122,407.498,375.226,407.498,377.821z"/>
					<g>
						<path style="fill:#F2A10A;" d="M396.522,377.765c-0.021,0.393,0.362,0.686,0.732,0.821c0.688,0.251,1.495,0.212,2.15-0.121
							c0.539-0.273,0.896-0.937,0.415-1.455C399.166,376.307,396.579,376.692,396.522,377.765z"/>
						<path style="fill:#F2A10A;" d="M383.714,374.478c-0.288,0.207-0.51,0.561-0.425,0.905c0.062,0.253,0.279,0.445,0.519,0.545
							c0.24,0.1,0.505,0.123,0.764,0.145c0.542,0.046,1.084,0.091,1.626,0.137c0.414,0.035,0.877,0.055,1.194-0.214
							c0.745-0.632,0.003-1.837-0.813-1.908c-0.4-0.035-0.813,0.061-1.214,0.06C384.781,374.148,384.216,374.117,383.714,374.478z"
							/>
						<path style="fill:#F2A10A;" d="M365.801,377.947c-0.253,0.204-0.49,0.444-0.615,0.745c-0.125,0.3-0.12,0.671,0.081,0.928
							c0.269,0.344,0.772,0.378,1.206,0.336c1.088-0.106,2.145-0.513,3.023-1.164c0.223-0.166,0.446-0.362,0.525-0.629
							c0.271-0.908-0.997-1.457-1.713-1.337C367.455,376.97,366.472,377.406,365.801,377.947z"/>
						<path style="fill:#F2A10A;" d="M348.552,377.817c-0.011,0.248,0.131,0.487,0.33,0.635c0.199,0.149,0.448,0.217,0.695,0.245
							c0.896,0.099,1.762-0.305,2.572-0.699c1.206-0.586-0.059-1.674-0.938-1.679C350.407,376.314,348.598,376.82,348.552,377.817z"
							/>
						<path style="fill:#F2A10A;" d="M358.815,375.845c-0.284,0.101-0.607,0.261-0.654,0.559c-0.033,0.212,0.099,0.423,0.276,0.543
							s0.394,0.165,0.606,0.199c0.812,0.129,1.644,0.122,2.454-0.017c0.681-0.117,1.726-0.308,2.251-0.795
							c0.437-0.405,0.233-0.853-0.244-1.072c-0.591-0.272-1.285-0.21-1.907-0.116C360.65,375.289,359.717,375.524,358.815,375.845z"
							/>
						<path style="fill:#F2A10A;" d="M376.117,379.297c-0.307,0.103-0.647,0.269-0.721,0.584c-0.062,0.267,0.107,0.546,0.338,0.693
							c0.231,0.147,0.512,0.19,0.784,0.221c1.485,0.167,3,0.065,4.45-0.3c0.484-0.122,1.063-0.544,0.55-1.021
							c-0.333-0.31-1.029-0.44-1.47-0.521C378.771,378.717,377.339,378.886,376.117,379.297z"/>
						<path style="fill:#F2A10A;" d="M373.533,375.021c-0.311,0.18-0.618,0.52-0.498,0.859c0.114,0.321,0.521,0.404,0.859,0.437
							c0.871,0.085,1.743,0.17,2.614,0.255c0.287,0.028,0.602,0.049,0.837-0.116c0.881-0.619-0.372-1.579-0.982-1.723
							C375.489,374.525,374.313,374.57,373.533,375.021z"/>
						<path style="fill:#F2A10A;" d="M390.32,377.01c-0.271,0.166-0.546,0.379-0.621,0.687c-0.074,0.304,0.078,0.632,0.319,0.833
							c0.241,0.2,0.555,0.291,0.866,0.33c0.688,0.086,1.403-0.063,2-0.416c0.844-0.5,1.293-1.859,0.098-2.283
							C392.227,375.894,390.927,376.638,390.32,377.01z"/>
						<path style="fill:#F2A10A;" d="M356.567,380.056c0.281,0.331,0.759,0.395,1.192,0.435c0.367,0.034,0.735,0.069,1.102,0.103
							c0.311,0.029,0.63,0.058,0.932-0.022c0.302-0.08,0.589-0.292,0.668-0.594c0.087-0.331-0.098-0.684-0.366-0.897
							c-0.583-0.464-1.629-0.701-2.369-0.65C356.937,378.486,355.865,379.161,356.567,380.056z"/>
						<path style="fill:#F2A10A;" d="M385.745,379.109c-0.271,0.056-0.567,0.155-0.695,0.401c-0.137,0.263-0.016,0.603,0.208,0.797
							c0.224,0.194,0.526,0.271,0.819,0.316c0.655,0.102,1.328,0.078,1.974-0.069c0.105-0.024,0.213-0.053,0.298-0.12
							c0.468-0.372-0.155-1.148-0.542-1.318C387.224,378.861,386.339,378.987,385.745,379.109z"/>
					</g>
				</g>
			</g>
			<g>
				<g>
					<path style="fill:#F7B385;" d="M388.673,381.524c-2.267,0.782-1.616,3.254,0.361,3.739c3.008,1.018,6.845-0.968,9.494,1.241
						c-3.881,2.922-13.206-1.292-18.601-1.955c-3.551-0.325-4.492,4.438-1.257,5.685c-4.548-2.192-6.064,5.87-1.033,5.482
						c-3.692-0.078-2.576,4.957,0.465,4.988c-1.898,2.824,0.908,4.67,3.356,5.541c4.331,1.54,9.177,1.82,13.733,1.929
						c4.752,0.114,9.605-0.054,14.288-0.93c3.743-0.701,7.354-1.814,9.838-4.92c2.031-2.54,3.221-6.229,2.572-9.473
						c-0.471-2.353-1.831-4.435-3.476-6.141c-3.978-4.125-9.732-6.569-15.327-7.449
						C398.234,378.498,392.941,378.909,388.673,381.524z"/>
					<g>
						<path style="fill:#E0764C;" d="M389.051,392.478c3.682,0.27,7.374,0.541,11.062,0.38c0.404-0.018,0.914-0.13,0.983-0.527
							c0.079-0.452-0.495-0.717-0.95-0.773c-1.342-0.167-2.697,0.038-4.042,0.184c-2.843,0.308-5.715,0.349-8.566,0.127
							c-2.868-0.223-5.583-0.898-8.392-1.423c0.933,0.969,3.205,1.216,4.477,1.442C385.417,392.206,387.236,392.345,389.051,392.478
							z"/>
						<path style="fill:#E0764C;" d="M395.629,398.939c1.19-0.055,2.391-0.162,3.521-0.541c0.257-0.086,0.545-0.226,0.599-0.492
							c0.048-0.24-0.133-0.478-0.355-0.579s-0.477-0.097-0.721-0.092c-5.058,0.106-10.119,0.022-15.171-0.253
							c-1.979-0.108-3.964-0.273-5.818-1.026c4.124,2.005,9.289,2.755,13.821,2.976
							C392.878,399.001,394.255,399.003,395.629,398.939z"/>
						<path style="fill:#E0764C;" d="M378.289,400.439c5.969,2.46,12.423,3.737,18.88,3.734c0.242,0,0.498-0.006,0.705-0.133
							c0.206-0.127,0.33-0.421,0.192-0.62c-0.129-0.186-0.395-0.195-0.621-0.187c-6.809,0.253-13.663-0.791-20.087-3.06"/>
					</g>
				</g>
				<g>
					<path style="fill:#3F7EA6;" d="M505.751,384.846c-0.174,4.008-1.002,8.105-3.495,10.159c-5.15,4.243-11.783,6.21-18.315,7.573
						c-21.478,4.482-43.672,3.512-65.591,2.521c-0.24-1.848-2.732-21.756-3.355-21.59c17.361-4.635,35.015-8.281,52.528-12.305
						c-7.846-12.73-12.906-27.136-14.936-41.943c-0.725-5.289-1.358-10.593-1.512-15.934c-0.166-5.738-0.232-12.662,2.794-17.775
						c0.721-1.218,1.67-1.89,2.652-2.837c0.846-0.816,1.557-2.088,2.959-1.956c0.93,0.088,1.749,0.628,2.509,1.171
						c7.593,5.426,13.662,12.762,18.615,20.671c4.953,7.909,8.851,16.423,12.734,24.909c5.957,13.017,10.965,25.675,12.185,40.047
						C505.691,379.521,505.868,382.164,505.751,384.846z"/>
					<path style="fill:#6598B8;" d="M416.514,406.302c3.443-0.091,6.886-0.182,10.329-0.273c-1.517-8.444-3.034-16.887-4.551-25.33
						c0,0.297-5.283,1.733-5.838,1.915c-0.764,0.251-1.745,0.278-1.9,1.098c-0.166,0.88,0.255,2.218,0.353,3.116
						c0.45,4.129,0.83,8.266,1.142,12.408C416.227,401.589,416.381,403.945,416.514,406.302z"/>
					<path style="fill:#2F5F7D;" d="M481.769,380.371c0.79,0.752,1.818,1.594,2.844,1.224c0.735-0.266,1.137-1.111,1.108-1.892
						c-0.03-0.781-0.402-1.507-0.816-2.17c-1.842-2.958-4.685-5.279-7.952-6.491c-2.02-0.75-4.194-1.072-6.345-0.963
						c-0.663,0.034-3.909,0.121-3.476,1.013c0.325,0.668,2.961,1.092,3.628,1.383c1.832,0.8,3.548,1.985,5.18,3.129
						C477.997,377.045,479.948,378.639,481.769,380.371z"/>
					<path style="fill:#2F5F7D;" d="M494.614,386.011c-0.26,1.769-0.018,3.726,1.176,5.058c0.177,0.198,0.397,0.39,0.662,0.404
						c0.617,0.034,0.84-0.793,0.857-1.41c0.054-1.913,0.155-3.849,0.717-5.678c0.562-1.829,1.637-3.566,3.268-4.569
						c0.374-0.23,0.822-0.492,0.855-0.929c0.188-2.501-4.216,0.789-4.615,1.207C495.993,381.71,494.939,383.799,494.614,386.011z"/>
				</g>
			</g>
		</g>
		<g>
			<g>
				<path style="fill:#D9E5ED;" d="M445.346,380.573L445.346,380.573c-9.872,0-17.875-8.003-17.875-17.875v-19.164h35.75v19.164
					C463.221,372.57,455.218,380.573,445.346,380.573z"/>
				<path style="fill:#D9E5ED;" d="M459.961,404.45h-29.229c-1.801,0-3.26,1.46-3.26,3.26l0,0h35.75l0,0
					C463.221,405.909,461.761,404.45,459.961,404.45z"/>
				<rect x="442.4" y="362.259" style="fill:#D9E5ED;" width="5.696" height="42.667"/>
			</g>
			<g>
				<path style="fill:#F2594B;" d="M430.345,355.011h30.38v7.744c0,8.389-6.801,15.19-15.19,15.19h0
					c-8.389,0-15.19-6.801-15.19-15.19V355.011z"/>
				<path style="fill:#B54338;" d="M430.345,355.011c-0.033,1.662,1.721,3.319,3.378,3.177c1.221-0.105,2.26-0.941,3.455-1.211
					c1.648-0.372,3.329,0.37,4.814,1.176c1.485,0.806,3.017,1.72,4.707,1.722c1.788,0.002,3.394-1.017,4.912-1.961
					c1.518-0.944,3.204-1.88,4.982-1.688c0.601,0.065,1.181,0.258,1.777,0.357c0.597,0.099,1.242,0.093,1.765-0.211
					c0.522-0.305,0.59-0.452,0.626-1.538"/>
				<path style="fill:#B54338;" d="M440.471,372.444c-0.468,0.148-0.975,0.355-1.183,0.799c-0.194,0.415-0.053,0.926,0.239,1.279
					c0.292,0.353,0.709,0.575,1.126,0.765c3.333,1.518,7.309,1.436,10.669-0.02c0.414-0.179,0.832-0.388,1.122-0.734
					c0.289-0.346,0.419-0.863,0.198-1.257c-0.143-0.255-0.405-0.42-0.664-0.556c-1.617-0.852-3.705-1.039-5.508-1.097
					C444.443,371.556,442.405,371.833,440.471,372.444z"/>
			</g>
			<rect x="430.345" y="346.527" style="fill:#F2F2F2;" width="30.417" height="6.04"/>
		</g>
		<g>
			<path style="fill:#F2A10A;" d="M706.56,428.289H40.402c-6.118,0-11.079-4.96-11.079-11.079v0c0-6.118,4.96-11.079,11.079-11.079
				H706.56c6.118,0,11.079,4.96,11.079,11.079v0C717.638,423.328,712.678,428.289,706.56,428.289z"/>
			<path style="fill:#F7C76C;" d="M677.6,443.381H80.925c-8.335,0-15.093-6.757-15.093-15.092l0,0h626.86l0,0
				C692.692,436.624,685.935,443.381,677.6,443.381z"/>
		</g>
		<g>
			<g>
				<path style="fill:#69952F;" d="M235.462,384.572c-0.809-2.317-1.314-4.829-0.786-7.226c0.528-2.397,2.28-4.641,4.676-5.171
					c3.316-0.733,6.371,1.823,8.808,4.188c0.546-3.963,2.74-7.732,6.088-9.921c3.349-2.189,7.832-2.659,11.448-0.948
					c3.617,1.711,6.14,5.65,5.909,9.644c2.401-2.356,4.848-4.747,7.828-6.308c2.98-1.561,6.625-2.199,9.725-0.895
					c3.101,1.304,5.308,4.908,4.33,8.126c3.286-1.681,7.085-3.4,10.528-2.069c2.911,1.125,4.705,4.334,4.673,7.454
					c-0.032,3.12-1.654,6.074-3.897,8.243c-2.243,2.17-5.066,3.642-7.942,4.852c-5.72,2.406-11.834,3.895-18.027,4.278
					c-6.186,0.383-12.382-0.33-18.538-1.042c-3.383-0.391-6.769-0.866-10.161-1.163c-1.872-0.164-3.912,0.043-5.738-0.454
					c-1.971-0.537-3.331-2.009-4.554-3.572C238.396,390.755,235.462,387.026,235.462,384.572z"/>
				<path style="fill:#B54338;" d="M245.955,381.517c2.181-1.221,4.802-1.799,7.222-1.175c2.42,0.624,4.55,2.592,4.975,5.055
					c1.637-1.041,3.88-0.819,5.496,0.254c1.616,1.074,2.649,2.87,3.141,4.746c0.492,1.876,0.492,3.845,0.403,5.782
					c-0.021,0.454-0.07,0.959-0.409,1.261c-0.264,0.236-0.639,0.288-0.99,0.327c-7.49,0.846-15.091,0.706-22.545-0.415
					c-0.95-0.143-1.939-0.319-2.702-0.902c-2.705-2.068-0.521-5.429,0.072-7.898C241.344,385.518,243.222,383.046,245.955,381.517z"
					/>
				<path style="fill:#B54338;" d="M294.598,383.905c-1.215-0.499-2.559-0.592-3.872-0.551c-1.437,0.045-2.909,0.258-4.16,0.968
					c-1.154,0.655-2.066,1.727-2.528,2.97c-0.48-1.225-2.062-1.721-3.328-1.364c-1.266,0.357-2.249,1.348-3.055,2.387
					c-2.059,2.653-3.374,6-3.081,9.345c7.391-1.26,14.937-1.605,22.412-1.025c0.953,0.074,1.955,0.155,2.824-0.243
					c2.672-1.221,2.082-4.793,0.397-6.506C298.22,387.868,297.443,385.074,294.598,383.905z"/>
				<path style="fill:#8CC63F;" d="M205.878,396.206c-2.757-0.103-5.213-1.676-7.515-3.196c-4.633-3.06-9.521-6.422-11.626-11.56
					c-0.616-1.504-0.963-3.207-0.46-4.753c0.918-2.825,4.421-4.104,7.338-3.543c2.917,0.562,5.364,2.471,7.687,4.322
					c-0.913-2.722,0.796-5.875,3.387-7.112c2.591-1.236,5.755-0.795,8.272,0.585c2.518,1.38,4.478,3.59,6.158,5.917
					c1.68,2.328,3.137,4.819,4.951,7.044c2.142-2.993,5.972-4.686,9.628-4.256c3.656,0.43,6.988,2.967,8.376,6.375
					c0.454,1.115,0.948,2.519,2.141,2.68c0.676,0.091,1.314-0.285,1.962-0.499c2.097-0.693,4.453,0.378,5.91,2.038
					c1.457,1.66,2.207,3.807,2.924,5.896c-13.155,2.066-26.548,1.857-39.863,1.642c-4.152-0.067-8.61-0.232-11.94-2.713"/>
				<path style="fill:#8CC63F;" d="M284.741,390.463c2.584-1.728,6.102-1.95,8.882-0.559c1.271-2.772,2.608-5.634,4.918-7.624
					c2.31-1.99,5.886-2.857,8.439-1.19c0.53,0.346,1.051,0.806,1.685,0.813c0.565,0.006,1.06-0.355,1.504-0.706
					c2.424-1.913,4.758-4.017,7.564-5.305c2.806-1.289,6.265-1.638,8.892-0.014c3.213,1.987,4.224,6.352,3.487,10.057
					c-0.899,4.515-4.034,8.528-8.197,10.493c-2.968,1.4-6.303,1.774-9.572,2.048c-7.334,0.614-14.709,0.82-22.062,0.476
					c-1.887-0.088-8.241,0.462-9.264-1.345C279.771,395.41,283.151,391.527,284.741,390.463z"/>
			</g>
			<g>
				<path d="M330.157,401.348H193.975c-1.489,0-2.695-1.207-2.695-2.695l0,0c0-1.488,1.207-2.695,2.695-2.695h136.182
					c1.488,0,2.695,1.207,2.695,2.695l0,0C332.852,400.141,331.646,401.348,330.157,401.348z"/>
				<path d="M305.337,406.042h-86.542c-2.977,0-5.39-2.413-5.39-5.39l0,0h97.323l0,0
					C310.728,403.629,308.314,406.042,305.337,406.042z"/>
			</g>
		</g>
		<g>
			<g>
				<path d="M157.63,337.394c-1.72-0.292-3.199,1.181-4.228,2.59c-1.855,2.54-3.365,5.311-4.85,8.083
					c-1.755,3.274-3.481,6.563-5.181,9.866c-2.957,5.746-6.51,11.618-8.763,17.678c-0.645,1.734-0.812,4.179,1.318,4.912
					c2.511,0.865,4.22-1.838,5.228-3.658c5.788-10.448,11.577-20.895,17.365-31.343c0.779-1.407,1.579-2.884,1.625-4.492
					C160.189,339.424,159.215,337.663,157.63,337.394z M158.175,342.321c-0.272,1.482-0.946,2.939-2.12,3.883
					c-0.333,0.268-0.714,0.496-1.137,0.563c-0.422,0.067-0.892-0.052-1.167-0.379c-0.296-0.351-0.316-0.854-0.277-1.312
					c0.151-1.762,0.99-3.043,2.007-4.42c0.341-0.461,0.541-0.847,1.154-0.939c0.79-0.118,1.389,0.421,1.566,1.171
					C158.311,341.357,158.262,341.848,158.175,342.321z"/>
				<g>
					<path style="fill:#F7C76C;" d="M112.735,360.738c-4.616,0.492-9.283,1.694-13.031,4.431c-2.263,1.653-4.109,3.802-5.932,5.93
						c-0.999,1.166-2.054,2.475-2.049,4.011c0.006,1.659,1.248,3.034,2.498,4.126c4.991,4.36,11.297,7.024,17.777,8.415
						c6.479,1.391,13.159,1.566,19.784,1.398c6.79-0.172,13.863-0.787,19.675-4.302c2.456-1.486,6.063-4.835,3.559-7.751
						c-2.37-2.76-5.4-5.216-8.367-7.299c-6.264-4.398-13.537-7.356-21.092-8.584C121.323,360.425,117,360.283,112.735,360.738z"/>
					<g>
						<path style="fill:#F2A10A;" d="M101.142,369.383c1.623-1.233,3.312-2.405,5.172-3.238c3.961-1.775,8.444-1.914,12.783-1.777
							c8.116,0.255,16.53,1.492,23.262,6.031c-5.358-1.924-10.872-3.411-16.471-4.443c-2.884-0.531-5.807-0.943-8.738-0.876
							c-4.385,0.1-8.719,1.35-12.539,3.493c-1.933,1.084-3.739,2.398-5.359,3.911c-0.809,0.756-1.573,1.561-2.282,2.412
							c-0.324,0.389-1.552,1.835-1.459,0.329c0.061-0.981,1.819-2.504,2.477-3.157C98.967,371.093,100.042,370.218,101.142,369.383z
							"/>
						<path style="fill:#F2A10A;" d="M108.347,370.793c9.072-3.914,19.975-3.284,28.535,1.648c-1.694-0.614-3.39-1.229-5.126-1.711
							c-9.97-2.766-21.141-0.816-29.584,5.163c-0.036,0.026,0.063-0.652,0.146-0.77c0.145-0.204,0.459-0.238,0.644-0.407
							c0.547-0.503,0.936-1.162,1.519-1.656C105.626,372.09,106.976,371.384,108.347,370.793z"/>
						<path style="fill:#F2A10A;" d="M122.527,372.372c3.654-0.16,7.351,1.16,10.078,3.597c-0.346,0.353-0.917,0.39-1.387,0.237
							c-0.47-0.153-0.869-0.463-1.278-0.741c-2.435-1.658-5.495-2.313-8.423-1.985c-2.928,0.328-5.714,1.607-8,3.465
							c-0.183,0.149-0.374,0.306-0.606,0.348c-0.232,0.042-0.512-0.083-0.55-0.315c-0.043-0.263,0.658-0.419,0.839-0.55
							c0.401-0.29,0.746-0.69,1.138-0.999c0.767-0.603,1.596-1.126,2.468-1.561C118.583,372.982,120.543,372.459,122.527,372.372z"
							/>
					</g>
				</g>
				<g>
					<path style="fill:#F2A10A;" d="M156.459,362.4c4.885-1.014,10.079-1.364,14.772,0.331c4.693,1.695,8.758,5.804,9.221,10.772
						c0.388,4.16-1.784,8.263-4.915,11.029c-3.13,2.767-7.117,4.37-11.128,5.537c-6.954,2.023-14.337,2.882-21.479,1.68
						c-3.811-0.642-7.533-1.892-10.921-3.759c-1.716-0.946-3.346-2.05-4.845-3.311c-1.461-1.229-3.423-2.374-1.91-4.206
						c4.908-5.943,11.771-10.668,18.707-13.908C147.949,364.703,152.15,363.294,156.459,362.4z"/>
					<path style="fill:#F7C76C;" d="M154.906,366.987c3.197-0.777,6.488-1.301,9.771-1.091c3.283,0.21,6.575,1.194,9.188,3.194
						c2.612,2,4.475,5.084,4.609,8.371c-1.113-0.147-1.596-1.441-2.024-2.479c-1.366-3.314-4.35-5.805-7.708-7.058
						c-3.358-1.253-7.059-1.36-10.606-0.841c-3.546,0.518-6.974,1.637-10.369,2.787c-2.113,0.716-4.255,1.463-6.065,2.766
						c-1.133,0.816-2.11,1.832-3.231,2.665c-0.426,0.317-3.405,2.115-2.901,0.208c0.149-0.564,1.444-1.069,1.918-1.354
						c0.747-0.449,1.503-0.883,2.267-1.301c3.084-1.685,6.311-3.108,9.634-4.251C151.202,367.979,153.044,367.439,154.906,366.987z"
						/>
					<path style="fill:#F7C76C;" d="M156.536,370.542c3.756-0.722,7.786-0.634,11.232,1.027c1.093,0.527,2.135,1.226,2.849,2.208
						c0.714,0.982,1.061,2.281,0.704,3.441c-1.438-1.671-3.003-3.274-4.902-4.392c-3.576-2.104-8.061-2.272-12.058-1.161
						c-2.09,0.581-4.076,1.49-5.947,2.582c-1.646,0.961-3.211,2.573-4.914,3.324c0.222-1.909,3.704-3.465,5.171-4.245
						C151.135,372.014,153.794,371.069,156.536,370.542z"/>
				</g>
			</g>
			<path d="M90.055,374.788H180.6c2.285,0,3.88,2.263,3.112,4.415l-3.801,10.649c-3.484,9.762-12.73,16.279-23.095,16.279h-42.614
				c-10.105,0-19.175-6.198-22.847-15.612l-4.378-11.226C86.132,377.127,87.73,374.788,90.055,374.788z"/>
		</g>
		<g>
			<g>
				<g>
					<path style="fill:#8CC63F;" d="M550.458,375.069c0.771-1.26,1.781-2.583,3.242-2.803c2.029-0.304,3.742,1.656,5.785,1.838
						c1.763,0.157,3.337-1.022,4.7-2.151c1.363-1.13,2.895-2.341,4.664-2.263c1.477,0.064,2.855,1.15,3.262,2.572
						c0.393,1.371,0.086,3.167,1.284,3.939c0.74,0.477,1.727,0.277,2.529-0.087s1.557-0.879,2.427-1.015
						c1.612-0.251,3.197,0.949,3.812,2.46s0.437,3.235-0.006,4.805c-1.017,3.606-3.383,6.766-6.391,8.999s-6.631,3.566-10.338,4.112
						c-4.698,0.693-9.575,0.139-13.998-1.59c-2.092-0.818-5.754-2.658-6.078-5.243c-0.07-0.559,0.239-1.077,0.376-1.61
						c0.201-0.783,0.353-1.576,0.568-2.356c0.436-1.581,0.976-3.134,1.614-4.645C548.636,378.317,549.487,376.656,550.458,375.069z"
						/>
					<path style="fill:#69952F;" d="M551.325,393.17c-2.606,0.574-5.314,0.662-7.954,0.286c-1.051-0.149-1.979-0.549-3.032-0.532
						c-0.999,0.016-2.043-0.021-2.814-0.751c-0.694-0.657-0.914-1.668-0.986-2.621c-0.187-2.453,0.407-4.953,1.641-7.079
						c0.579-0.998,1.304-1.57,2.066-2.374c0.792-0.835,1.485-1.715,2.676-1.976c1.316-0.288,2.654,0.332,3.801,1.038
						c1.148,0.706,2.283,1.538,3.616,1.736c1.59,0.237,3.173-0.478,4.501-1.383c1.328-0.906,2.519-2.022,3.946-2.762
						c1.173-0.608,2.707-0.906,3.747-0.09c0.79,0.618,1.096,1.734,1.942,2.273c1.065,0.679,2.459,0.164,3.607-0.363
						c1.148-0.527,2.539-1.046,3.607-0.371c1.035,0.654,1.19,2.188,0.653,3.289c-0.537,1.1-1.576,1.857-2.595,2.536
						c-2.192,1.46-4.479,2.772-6.773,4.066C559.27,390.182,555.477,392.255,551.325,393.17z"/>
				</g>
				<g>
					<path style="fill:#F7C76C;" d="M504.612,378.018c-0.281-3.498,0.035-7.184,1.611-10.196c1.576-3.013,4.614-5.184,7.65-4.702
						c2.107,0.334,3.936,1.847,5.427,3.585c4.152,4.843,6.285,11.865,5.654,18.615c-0.196,2.099-0.72,4.311-2.126,5.675
						c-1.199,1.163-2.848,1.514-4.418,1.543c-2.849,0.052-5.697-0.86-8.137-2.539c-1.031-0.709-2.063-1.56-3.001-2.424
						c-0.898-0.828-1.21-2.121-1.552-3.339C505.156,382.217,504.782,380.129,504.612,378.018z"/>
					<path style="fill:#B54338;" d="M508.081,364.004c-1.599,1.366-2.857,3.097-3.868,4.942c-0.441,0.805-0.845,1.658-0.927,2.573
						c-0.082,0.915,0.211,1.91,0.944,2.463c0.8,0.604,1.948,0.553,2.859,0.136c0.911-0.417,1.638-1.143,2.344-1.854
						c0.484,0.916,0.978,1.845,1.69,2.598c0.712,0.753,1.684,1.321,2.72,1.32c1.156-0.001,2.234-0.726,2.859-1.698
						c0.626-0.972,0.848-2.158,0.849-3.314c0.89,0.327,1.567,1.048,2.36,1.566c0.793,0.519,1.894,0.814,2.655,0.249
						c0.889-0.66,0.757-2.024,0.398-3.071c-1.071-3.119-3.462-5.832-6.555-6.975c-3.093-1.143-6.842-0.556-9.228,1.72"/>
				</g>
				<g>
					<path style="fill:#F2A10A;" d="M491.283,389.667c-3.062-4.179-4.782-9.283-5.138-14.451c-0.189-2.754,0.126-5.824,2.136-7.715
						c1.644-1.547,4.086-1.946,6.335-1.752c2.534,0.219,5.008,1.104,7.105,2.543c3.603,2.472,5.931,6.401,7.709,10.392
						c1.137,2.551,2.103,5.204,2.497,7.969s0.187,5.662-0.944,8.215c-1.087,2.453-4.109,5.929-7.141,4.581
						c-1.183-0.526-2.153-1.528-3.288-2.157c-1.658-0.919-3.279-1.768-4.774-2.953C494.081,392.992,492.564,391.415,491.283,389.667
						z"/>
					<g>
						<path style="fill:#F2594B;" d="M487.023,367.331c-2.115,3.078-2.72,7.145-1.592,10.706c0.26,0.822,0.651,1.669,1.388,2.116
							c1.005,0.609,2.367,0.26,3.259-0.506c0.891-0.766,1.42-1.861,1.923-2.923c1.109,2.169,3.684,3.484,6.091,3.111
							c2.407-0.373,4.463-2.406,4.863-4.809c1.108,1.106,2.434,1.992,3.88,2.592c0.517,0.214,1.147,0.381,1.604,0.059
							c0.573-0.404,0.484-1.272,0.279-1.943c-0.914-3.002-2.896-5.647-5.448-7.473c-2.552-1.827-5.653-2.844-8.787-3.013
							c-1.472-0.079-2.972,0.027-4.364,0.513c-1.392,0.486-2.672,1.377-3.45,2.629"/>
					</g>
				</g>
				<g>
					<path style="fill:#F2A10A;" d="M519.844,384.275c-0.713-5.132,0.193-10.44,2.332-15.159c1.139-2.514,2.873-5.067,5.54-5.779
						c2.181-0.582,4.52,0.225,6.408,1.463c2.127,1.395,3.885,3.347,5.049,5.609c1.999,3.885,2.185,8.448,1.857,12.805
						c-0.209,2.785-0.617,5.579-1.582,8.199c-0.965,2.621-2.521,5.073-4.728,6.784c-2.12,1.644-6.43,3.27-8.46,0.646
						c-0.792-1.024-1.171-2.366-1.872-3.459c-1.024-1.595-2.048-3.112-2.802-4.864C520.73,388.529,520.143,386.422,519.844,384.275z
						"/>
					<path style="fill:#F2594B;" d="M519.461,375.441c-0.104,0.545-0.179,1.107-0.075,1.652c0.104,0.545,0.414,1.075,0.91,1.323
						c0.609,0.305,1.372,0.121,1.922-0.28s0.934-0.985,1.306-1.556c0.319,1.563,1.664,2.836,3.223,3.173
						c1.559,0.337,3.256-0.227,4.384-1.354c1.128-1.127,1.691-2.766,1.607-4.359c0.596,0.849,1.305,1.641,2.203,2.16
						c0.898,0.518,2.007,0.735,2.99,0.407c1.586-0.529,2.451-2.361,2.341-4.029c-0.109-1.668-0.986-3.185-1.958-4.544
						c-1.215-1.698-2.644-3.284-4.425-4.374c-1.781-1.089-3.953-1.645-5.994-1.202c-2.615,0.568-3.697,2.54-4.925,4.669
						C521.469,369.73,520.034,372.461,519.461,375.441z"/>
				</g>
			</g>
			<path d="M488.986,387.334h90.643c2.284,0,3.822,2.338,2.917,4.435l-5.369,12.443c-0.502,1.164-1.649,1.918-2.917,1.918h-80.577
				c-1.322,0-2.505-0.818-2.972-2.055l-4.697-12.443C485.229,389.555,486.765,387.334,488.986,387.334z"/>
		</g>
		<g>
			<g>
				<path style="fill:#B54338;" d="M622.011,384.019c5.17-1.97,11.637,0.587,14.061,5.56c1.685-4.329,6.014-7.654,10.659-7.626
					c4.645,0.028,9.133,3.79,9.481,8.422c1.366-1.766,2.832-3.516,4.735-4.683c1.903-1.168,4.336-1.677,6.398-0.822
					c2.062,0.855,3.483,3.321,2.723,5.421c3.763-1.466,8.111-1.361,11.798,0.285c1.156,0.516,2.276,1.202,3.03,2.219
					c0.754,1.017,1.082,2.417,0.584,3.581c-0.894,2.088-3.679,2.39-5.951,2.375c-11.813-0.076-23.625-0.152-35.438-0.228
					c-5.886-0.038-11.773-0.076-17.659-0.114c-2.912-0.019-5.884,0.136-8.789-0.058c-1.909-0.127-2.661-1.117-2.789-2.984
					C614.532,390.631,617.558,385.716,622.011,384.019z"/>
				<path style="fill:#F2594B;" d="M618.904,391.834c1.222-0.294,2.258-1.08,3.245-1.857c0.987-0.777,2-1.584,3.208-1.932
					c1.536-0.443,3.22-0.074,4.624,0.691c1.404,0.765,2.57,1.896,3.669,3.058c0.781,0.826,1.822,1.756,2.899,1.391
					c0.799-0.271,1.193-1.137,1.616-1.867c1.395-2.412,4.036-4.057,6.816-4.245s5.618,1.085,7.326,3.287
					c0.728,0.939,1.256,2.024,2.031,2.924c0.774,0.9,1.905,1.625,3.083,1.476c1.307-0.165,2.246-1.323,2.909-2.462
					c0.663-1.139,1.25-2.408,2.36-3.119c1.727-1.106,4.386-0.165,5.032,1.782c0.391,1.18,0.206,2.688,1.194,3.443
					c1.076,0.822,2.581,0.064,3.822-0.48c3.188-1.398,7.052-1.137,10.023,0.677c0.689,0.42,1.476,0.94,2.236,0.669
					c1.145-0.408,1.016-2.118,0.364-3.144c-1.312-2.062-3.731-3.212-6.15-3.558s-4.878,0.01-7.296,0.365
					c0.667-3.427-2.37-6.862-5.835-7.288c-3.465-0.426-6.905,1.648-8.849,4.548c-2.234-3.522-6.331-5.783-10.502-5.796
					c-4.171-0.013-8.282,2.222-10.538,5.729c-2.794-2.678-6.784-4.059-10.635-3.682c-3.591,0.352-6.354,2.217-9.012,4.507
					C614.174,388.991,615.531,392.645,618.904,391.834z"/>
			</g>
			<g>
				<path d="M690.099,401.832H608.47c-1.488,0-2.695-1.207-2.695-2.695l0,0c0-1.488,1.207-2.695,2.695-2.695h81.629
					c1.488,0,2.695,1.207,2.695,2.695l0,0C692.794,400.626,691.588,401.832,690.099,401.832z"/>
				<path d="M679.431,406.527h-57.493c-2.727,0-4.938-2.211-4.938-4.938l0,0c0-0.25,0.203-0.453,0.453-0.453h66.463
					c0.25,0,0.453,0.203,0.453,0.453l0,0C684.369,404.316,682.158,406.527,679.431,406.527z"/>
			</g>
		</g>
	</g>
</g>
</svg>
